<?xml version="1.0" encoding="UTF-8" standalone="no"?>
<!-- Created with Inkscape (http://www.inkscape.org/) -->

<svg
   width="210mm"
   height="297mm"
   viewBox="0 0 210 297"
   version="1.1"
   id="svg5"
   inkscape:version="1.1.2 (0a00cf5339, 2022-02-04)"
   sodipodi:docname="bezier-logo-negativo.svg"
   inkscape:export-filename="/home/fabio/MeuGithub/MyLogo/curvas/bezier-logo-negativo.png"
   inkscape:export-xdpi="96"
   inkscape:export-ydpi="96"
   xmlns:inkscape="http://www.inkscape.org/namespaces/inkscape"
   xmlns:sodipodi="http://sodipodi.sourceforge.net/DTD/sodipodi-0.dtd"
   xmlns="http://www.w3.org/2000/svg"
   xmlns:svg="http://www.w3.org/2000/svg">
  <sodipodi:namedview
     id="namedview7"
     pagecolor="#ffffff"
     bordercolor="#666666"
     borderopacity="1.0"
     inkscape:pageshadow="2"
     inkscape:pageopacity="0.0"
     inkscape:pagecheckerboard="0"
     inkscape:document-units="mm"
     showgrid="false"
     inkscape:zoom="0.75187991"
     inkscape:cx="579.21484"
     inkscape:cy="560.59484"
     inkscape:window-width="1846"
     inkscape:window-height="1016"
     inkscape:window-x="74"
     inkscape:window-y="27"
     inkscape:window-maximized="1"
     inkscape:current-layer="layer1" />
  <defs
     id="defs2" />
  <g
     inkscape:label="Figura"
     inkscape:groupmode="layer"
     id="layer1">
    <path
       style="fill:none;stroke:#ffff00;stroke-width:2;stroke-linecap:butt;stroke-linejoin:miter;stroke-miterlimit:4;stroke-dasharray:none;stroke-opacity:1"
       d="m 99.452863,183.47811 c -54.644338,-33.22303 -55.566438,33.90932 0,0 z"
       id="path972"
       sodipodi:nodetypes="cc" />
    <path
       style="fill:none;stroke:#ffff00;stroke-width:2;stroke-linecap:butt;stroke-linejoin:miter;stroke-miterlimit:4;stroke-dasharray:none;stroke-opacity:0"
       d="m 73.894773,173.77046 c 26.536197,-0.0911 25.5579,-47.57244 25.5579,-47.57244"
       id="path1322"
       sodipodi:nodetypes="cc" />
    <path
       style="fill:none;stroke:#ffff00;stroke-width:2;stroke-linecap:butt;stroke-linejoin:miter;stroke-miterlimit:4;stroke-dasharray:none;stroke-opacity:1"
       d="m 99.452863,183.47811 c 54.644337,33.22303 55.566437,-33.90932 0,0 z"
       id="path972-6"
       sodipodi:nodetypes="cc" />
    <path
       style="fill:none;stroke:#ffff00;stroke-width:2;stroke-linecap:butt;stroke-linejoin:miter;stroke-miterlimit:4;stroke-dasharray:none;stroke-opacity:1"
       d="m 99.452673,94.962363 c 33.292427,41.644297 -33.98016,42.347017 0,0 z"
       id="path972-7"
       sodipodi:nodetypes="cc" />
    <path
       style="fill:none;stroke:#ffff00;stroke-width:2;stroke-linecap:butt;stroke-linejoin:miter;stroke-miterlimit:4;stroke-dasharray:none;stroke-opacity:0"
       d="M 123.86053,173.77046 C 97.324333,173.67936 99.452673,126.19802 99.452673,126.19802"
       id="path1322-3"
       sodipodi:nodetypes="cc" />
  </g>
  <g
     inkscape:groupmode="layer"
     id="layer2"
     inkscape:label="contorno"
     style="display:inline">
    <path
       style="fill:none;stroke:#000000;stroke-width:0;stroke-linecap:butt;stroke-linejoin:miter;stroke-miterlimit:4;stroke-dasharray:none;stroke-opacity:1"
       d="m 99.453,83.013081 c 41.36848,0.03053 67.71707,30.059519 67.845,64.854919 0.12793,34.7954 -26.7504,64.90864 -67.845,64.83503 C 58.3584,212.62942 31.440988,181.64066 31.608,147.868 31.775012,114.09534 58.08452,82.982551 99.453,83.013081 Z"
       id="path3930"
       sodipodi:nodetypes="zzzzz" />
    <path
       style="fill:none;stroke:#000000;stroke-width:0;stroke-linecap:butt;stroke-linejoin:miter;stroke-miterlimit:4;stroke-dasharray:none;stroke-opacity:1"
       d="m 99.453,85.013 c 40.12169,0.0292 65.72092,29.58081 65.845,62.855 0.12407,33.274 -25.98893,62.90539 -65.845,62.835 C 59.597156,210.6326 33.446022,180.16398 33.608,147.868 33.769977,115.57184 59.331531,84.983805 99.453,85.013 Z"
       id="path3930-5"
       sodipodi:nodetypes="zzzzz" />
    <path
       style="fill:#ffff00;stroke-width:0"
       d="M 341.18342,800.5242 C 242.95228,788.64284 163.21554,725.17146 133.04456,634.84319 c -6.48051,-19.40186 -9.71409,-35.57234 -11.55735,-57.79589 -5.24024,-63.18011 17.53295,-130.01773 61.11821,-179.37741 58.64215,-66.4114 154.86805,-96.04665 250.10645,-77.02676 61.75212,12.33241 114.24903,44.40346 149.56074,91.36863 64.86866,86.27642 64.88217,208.54475 0.0325,293.9686 -9.09074,11.97486 -30.05261,33.16713 -42.37725,42.84303 -53.03923,41.64036 -125.68328,60.53776 -198.74441,51.70081 z m 63.99305,-4.59977 C 537.6079,782.36393 630.47483,678.61051 625.33732,549.95485 622.36562,475.53633 586.7636,408.83039 527.17996,366.04178 511.85427,355.03599 482.19816,340.07155 463.50487,333.91138 394.41994,311.14523 314.12242,317.14852 252.61775,349.67795 158.9302,399.2287 108.3583,507.87072 131.531,609.80483 c 4.7459,20.8767 9.22765,33.2631 19.48988,53.86498 12.36629,24.82588 23.67527,40.3826 44.48086,61.18819 20.47132,20.47132 36.08376,31.91064 60.54767,44.36363 44.53242,22.66858 96.91814,32.0488 149.12706,26.7028 z"
       id="path5532"
       transform="scale(0.26458333)" />
    <path
       style="fill:#000000;fill-opacity:0;stroke:#ffff00;stroke-width:0;stroke-miterlimit:4;stroke-dasharray:none;stroke-opacity:1"
       d="m 367.7449,472.63155 c -14.63761,-2.7315 -24.55738,-16.36249 -24.50003,-33.66607 0.0363,-10.96313 3.89674,-24.7511 10.80129,-38.57831 5.00276,-10.01865 17.72981,-29.91686 20.72495,-32.40261 1.45209,-1.20512 3.44988,0.97054 10.0356,10.92911 14.54209,21.98977 22.74839,43.12045 22.81508,58.74731 0.0967,22.66641 -18.48553,38.96237 -39.87689,34.97057 z"
       id="path6012"
       transform="scale(0.26458333)" />
    <path
       style="fill:#ffff00;fill-opacity:1;stroke:#ffff00;stroke-width:0;stroke-miterlimit:4;stroke-dasharray:none;stroke-opacity:0"
       d="M 356.13256,795.83547 C 300.55489,792.1336 245.6358,769.41292 205.99554,733.72201 163.4092,695.37853 137.39758,647.32428 128.97174,591.42708 c -3.70521,-24.58043 -1.91529,-61.51627 4.16891,-86.02722 17.05583,-68.71152 62.71828,-126.40571 124.30206,-157.05479 52.30649,-26.03194 114.8485,-33.75529 175.47217,-21.66914 27.29037,5.44071 56.98166,17.25312 82.87885,32.9726 48.11531,29.20579 86.96739,82.7125 101.33871,139.56267 9.51292,37.63137 9.77473,82.84492 0.68584,118.44262 -29.21196,114.41192 -135.23664,186.60406 -261.68572,178.18165 z m -60.16599,-63.67916 c 21.50177,-4.38179 45.26341,-13.72074 68.59549,-26.95984 l 10.76236,-6.10678 21.81274,10.98377 c 40.91693,20.60366 75.09099,27.75256 102.16248,21.37143 21.55681,-5.08125 37.35521,-21.65143 37.35521,-39.18008 0,-12.5619 -9.26566,-26.48866 -21.89159,-32.90421 -10.83171,-5.50386 -18.63873,-6.96297 -37.34646,-6.98 -11.23384,-0.0106 -20.09723,-0.73314 -25.16167,-2.05227 -41.12698,-10.71221 -65.8333,-59.17366 -71.17435,-139.60847 -2.01308,-30.31625 -2.37748,-27.96607 4.6409,-29.9311 19.13509,-5.35749 30.04057,-20.99136 30.10233,-43.15409 0.0165,-5.9216 -0.94169,-14.64291 -2.12933,-19.38067 -3.17721,-12.6747 -16.6233,-38.68302 -27.65355,-53.48931 l -9.65124,-12.95521 -4.34198,4.97521 c -8.43546,9.66569 -20.54472,28.49808 -26.95731,41.92418 -8.33749,17.45628 -11.01808,28.78879 -10.29329,43.51601 0.67915,13.80018 4.51386,22.2591 13.79389,30.4277 5.59535,4.92523 15.92299,9.47228 21.51422,9.47228 2.15753,0 1.57824,13.44477 -1.83372,42.55999 -7.18075,61.27508 -28.78237,105.69674 -58.46705,120.2319 -10.39503,5.08995 -20.37501,7.26318 -39.81473,8.67003 -22.19163,1.60602 -31.41223,4.76072 -42.07775,14.39638 -12.60968,11.39209 -16.04443,28.76499 -8.44398,42.70952 11.33425,20.79495 40.13142,28.87475 76.49838,21.46363 z"
       id="path6051"
       transform="scale(0.26458333)" />
    <path
       style="fill:#000000;fill-opacity:0;stroke:#ffff00;stroke-width:0;stroke-miterlimit:4;stroke-dasharray:none;stroke-opacity:1"
       d="m 369.7399,684.72577 c -10.78338,-6.68551 -36.15562,-18.34648 -49.98783,-22.97419 l -14.2355,-4.76264 8.17167,-3.88691 c 5.82833,-2.77229 11.62612,-7.34461 20.21798,-15.94456 10.91014,-10.9204 12.81939,-13.62567 20.24283,-28.68264 8.64903,-17.54283 16.15245,-40.24014 19.06773,-57.67849 l 1.74925,-10.46351 2.26984,12.86424 c 4.41095,24.99884 12.6169,49.05264 22.63551,66.35062 7.39128,12.76168 23.12042,28.21427 34.34633,33.74244 5.33673,2.62806 7.86861,4.511 6.64999,4.94554 -1.0823,0.38594 -6.45657,2.28927 -11.94282,4.22964 -12.76447,4.51451 -31.40402,13.1973 -43.51437,20.27013 -5.21659,3.04665 -9.67954,5.48295 -9.91766,5.414 -0.23813,-0.069 -2.82695,-1.6096 -5.75295,-3.42367 z"
       id="path6090"
       transform="scale(0.26458333)" />
    <path
       style="fill:#000000;fill-opacity:0;stroke:#ffff00;stroke-width:0;stroke-miterlimit:4;stroke-dasharray:none;stroke-opacity:1"
       d="m 260.5299,725.5506 c -21.93834,-3.32562 -36.3032,-15.48445 -36.39575,-30.80642 -0.0453,-7.50235 6.20016,-18.09386 13.72867,-23.28202 23.13679,-15.94435 62.80803,-11.53329 110.92468,12.33377 9.68967,4.80631 17.31575,9.22713 16.94685,9.82402 -1.14609,1.85441 -20.62061,11.93118 -34.65784,17.93314 -26.93291,11.51579 -52.91282,16.6706 -70.54661,13.99751 z"
       id="path6129"
       transform="scale(0.26458333)" />
    <path
       style="fill:none;stroke:#ffff00;stroke-width:0;stroke-miterlimit:4;stroke-dasharray:none;stroke-opacity:1"
       d="m 465.49987,724.13197 c -17.57407,-2.1802 -40.48798,-9.90839 -63.17498,-21.30706 -20.34347,-10.22121 -20.46931,-8.60662 1.52663,-19.58727 45.94624,-22.93694 81.82894,-28.38598 105.92542,-16.08554 12.52094,6.39152 16.90291,12.87482 16.90291,25.00849 0,7.71379 -0.53603,9.75013 -3.81021,14.47477 -9.49775,13.70526 -32.17701,20.62197 -57.36977,17.49661 z"
       id="path6168"
       transform="scale(0.26458333)" />
    <path
       style="fill:none;stroke:#ffff00;stroke-width:0;stroke-miterlimit:4;stroke-dasharray:none;stroke-opacity:1"
       d="m 465.49987,724.13197 c -17.57407,-2.1802 -40.48798,-9.90839 -63.17498,-21.30706 -20.34347,-10.22121 -20.46931,-8.60662 1.52663,-19.58727 45.94624,-22.93694 81.82894,-28.38598 105.92542,-16.08554 12.52094,6.39152 16.90291,12.87482 16.90291,25.00849 0,7.71379 -0.53603,9.75013 -3.81021,14.47477 -9.49775,13.70526 -32.17701,20.62197 -57.36977,17.49661 z"
       id="path6281"
       transform="scale(0.26458333)" />
    <path
       style="fill:none;stroke:#ffff00;stroke-width:0;stroke-miterlimit:4;stroke-dasharray:none;stroke-opacity:1"
       d="m 254.37564,723.63153 c -18.63553,-5.39291 -28.9407,-15.58682 -28.9407,-28.62821 0,-9.94283 7.90322,-20.74325 19.28499,-26.35457 19.00694,-9.3706 50.77852,-6.69177 84.15992,7.09598 14.66971,6.05913 34.87505,16.43752 34.87505,17.91342 0,1.72197 -33.75744,17.85793 -46.95151,22.4427 -6.43858,2.23732 -15.71533,5.02115 -20.61499,6.18628 -12.39014,2.94636 -33.88851,3.63759 -41.81276,1.3444 z"
       id="path6592"
       transform="scale(0.26458333)" />
    <path
       style="fill:none;stroke:#ffff00;stroke-width:0;stroke-miterlimit:4;stroke-dasharray:none;stroke-opacity:1"
       d="m 254.37564,723.63153 c -18.63553,-5.39291 -28.9407,-15.58682 -28.9407,-28.62821 0,-9.94283 7.90322,-20.74325 19.28499,-26.35457 19.00694,-9.3706 50.77852,-6.69177 84.15992,7.09598 14.66971,6.05913 34.87505,16.43752 34.87505,17.91342 0,1.72197 -33.75744,17.85793 -46.95151,22.4427 -6.43858,2.23732 -15.71533,5.02115 -20.61499,6.18628 -12.39014,2.94636 -33.88851,3.63759 -41.81276,1.3444 z"
       id="path6631"
       transform="scale(0.26458333)" />
    <path
       style="fill:none;stroke:#ffff00;stroke-width:0;stroke-miterlimit:4;stroke-dasharray:none;stroke-opacity:1"
       d="m 254.37564,723.63153 c -18.63553,-5.39291 -28.9407,-15.58682 -28.9407,-28.62821 0,-9.94283 7.90322,-20.74325 19.28499,-26.35457 19.00694,-9.3706 50.77852,-6.69177 84.15992,7.09598 14.66971,6.05913 34.87505,16.43752 34.87505,17.91342 0,1.72197 -33.75744,17.85793 -46.95151,22.4427 -6.43858,2.23732 -15.71533,5.02115 -20.61499,6.18628 -12.39014,2.94636 -33.88851,3.63759 -41.81276,1.3444 z"
       id="path6707"
       transform="scale(0.26458333)" />
    <path
       style="fill:none;stroke:#ffff00;stroke-width:0;stroke-miterlimit:4;stroke-dasharray:none;stroke-opacity:1"
       d="m 364.4199,680.91379 c -12.19856,-6.75294 -37.60221,-17.83988 -48.95081,-21.36364 l -7.72082,-2.39733 5.06082,-2.57999 c 7.11888,-3.62918 10.21395,-6.15451 22.74071,-18.55463 9.49559,-9.39958 12.03789,-12.95347 18.27619,-25.54837 8.17818,-16.51145 17.11317,-42.54923 19.44385,-56.66205 l 1.55968,-9.44422 3.07773,15.26555 c 3.87482,19.21912 9.65334,36.69639 17.39714,52.61808 4.76185,9.79062 8.36013,14.85482 17.01018,23.93999 6.37011,6.69054 14.47907,13.5953 19.33666,16.46511 6.87429,4.06125 7.91059,5.10421 5.81227,5.84963 -14.62244,5.19456 -32.02639,12.79789 -45.4716,19.86535 -8.97489,4.71765 -16.45613,8.54584 -16.62499,8.5071 -0.16886,-0.0387 -5.09501,-2.72101 -10.94701,-5.96058 z"
       id="path6746"
       transform="scale(0.26458333)" />
    <path
       style="fill:none;stroke:#ffff00;stroke-width:0;stroke-miterlimit:4;stroke-dasharray:none;stroke-opacity:1"
       d="m 364.4199,680.91379 c -12.19856,-6.75294 -37.60221,-17.83988 -48.95081,-21.36364 l -7.72082,-2.39733 5.06082,-2.57999 c 7.11888,-3.62918 10.21395,-6.15451 22.74071,-18.55463 9.49559,-9.39958 12.03789,-12.95347 18.27619,-25.54837 8.17818,-16.51145 17.11317,-42.54923 19.44385,-56.66205 l 1.55968,-9.44422 3.07773,15.26555 c 3.87482,19.21912 9.65334,36.69639 17.39714,52.61808 4.76185,9.79062 8.36013,14.85482 17.01018,23.93999 6.37011,6.69054 14.47907,13.5953 19.33666,16.46511 6.87429,4.06125 7.91059,5.10421 5.81227,5.84963 -14.62244,5.19456 -32.02639,12.79789 -45.4716,19.86535 -8.97489,4.71765 -16.45613,8.54584 -16.62499,8.5071 -0.16886,-0.0387 -5.09501,-2.72101 -10.94701,-5.96058 z"
       id="path6822"
       transform="scale(0.26458333)" />
    <path
       style="fill:none;stroke:#ffff00;stroke-width:0;stroke-miterlimit:4;stroke-dasharray:none;stroke-opacity:1"
       d="m 465.49987,724.13197 c -17.57407,-2.1802 -40.48798,-9.90839 -63.17498,-21.30706 -20.34347,-10.22121 -20.46931,-8.60662 1.52663,-19.58727 45.94624,-22.93694 81.82894,-28.38598 105.92542,-16.08554 12.52094,6.39152 16.90291,12.87482 16.90291,25.00849 0,7.71379 -0.53603,9.75013 -3.81021,14.47477 -9.49775,13.70526 -32.17701,20.62197 -57.36977,17.49661 z"
       id="path6861"
       transform="scale(0.26458333)" />
    <path
       style="fill:none;stroke:#ffff00;stroke-width:0;stroke-miterlimit:4;stroke-dasharray:none;stroke-opacity:1"
       d="m 465.49987,724.13197 c -17.57407,-2.1802 -40.48798,-9.90839 -63.17498,-21.30706 -20.34347,-10.22121 -20.46931,-8.60662 1.52663,-19.58727 45.94624,-22.93694 81.82894,-28.38598 105.92542,-16.08554 12.52094,6.39152 16.90291,12.87482 16.90291,25.00849 0,7.71379 -0.53603,9.75013 -3.81021,14.47477 -9.49775,13.70526 -32.17701,20.62197 -57.36977,17.49661 z"
       id="path6900"
       transform="scale(0.26458333)" />
    <path
       style="fill:none;stroke:#ffff00;stroke-width:0;stroke-miterlimit:4;stroke-dasharray:none;stroke-opacity:1"
       d="m 465.49987,724.13197 c -17.57407,-2.1802 -40.48798,-9.90839 -63.17498,-21.30706 -20.34347,-10.22121 -20.46931,-8.60662 1.52663,-19.58727 45.94624,-22.93694 81.82894,-28.38598 105.92542,-16.08554 12.52094,6.39152 16.90291,12.87482 16.90291,25.00849 0,7.71379 -0.53603,9.75013 -3.81021,14.47477 -9.49775,13.70526 -32.17701,20.62197 -57.36977,17.49661 z"
       id="path6939"
       transform="scale(0.26458333)" />
    <path
       style="fill:none;stroke:#ffff00;stroke-width:0;stroke-miterlimit:4;stroke-dasharray:none;stroke-opacity:0"
       d="m 364.4199,680.91379 c -12.19856,-6.75294 -37.60221,-17.83988 -48.95081,-21.36364 l -7.72082,-2.39733 5.06082,-2.57999 c 7.11888,-3.62918 10.21395,-6.15451 22.74071,-18.55463 9.49559,-9.39958 12.03789,-12.95347 18.27619,-25.54837 8.17818,-16.51145 17.11317,-42.54923 19.44385,-56.66205 l 1.55968,-9.44422 3.07773,15.26555 c 3.87482,19.21912 9.65334,36.69639 17.39714,52.61808 4.76185,9.79062 8.36013,14.85482 17.01018,23.93999 6.37011,6.69054 14.47907,13.5953 19.33666,16.46511 6.87429,4.06125 7.91059,5.10421 5.81227,5.84963 -14.62244,5.19456 -32.02639,12.79789 -45.4716,19.86535 -8.97489,4.71765 -16.45613,8.54584 -16.62499,8.5071 -0.16886,-0.0387 -5.09501,-2.72101 -10.94701,-5.96058 z"
       id="path6978"
       transform="scale(0.26458333)" />
    <path
       style="fill:none;stroke:#ffff00;stroke-width:0;stroke-miterlimit:4;stroke-dasharray:none;stroke-opacity:1"
       d="m 348.81669,794.52517 c -28.10522,-2.71082 -60.9948,-12.14233 -87.02431,-24.95535 -26.95987,-13.27097 -45.48988,-26.45661 -65.6436,-46.71086 -33.26056,-33.42648 -53.55026,-71.13225 -64.51432,-119.89146 -2.95653,-13.14824 -4.1386,-55.3904 -2.03321,-72.65852 6.84989,-56.18204 37.98765,-113.49452 81.53649,-150.07691 45.91612,-38.57098 102.1502,-58.16504 166.58215,-58.04346 30.56087,0.0577 53.4157,3.47512 79.79998,11.9324 66.21446,21.22455 113.96972,62.52324 143.53282,124.12702 17.4977,36.46178 24.14058,72.54447 21.82731,118.56108 -3.50664,69.75579 -41.77178,136.10019 -101.52015,176.01646 -49.01318,32.74438 -110.73515,47.66112 -172.54316,41.6996 z m -53.34127,-61.67932 c 16.77926,-3.18531 38.21119,-11.10585 60.05407,-22.19399 l 20.36958,-10.34025 16.07476,8.05804 c 20.46124,10.25691 35.50763,16.31334 50.7804,20.44002 41.42179,11.19211 74.21807,4.45723 88.77693,-18.23078 3.74444,-5.83522 4.50987,-8.38117 4.91162,-16.33709 0.39021,-7.72713 -0.0767,-10.60037 -2.59238,-15.9522 -4.18087,-8.89442 -11.75786,-16.10049 -21.93856,-20.86461 -7.68071,-3.59423 -10.45292,-4.10134 -28.13115,-5.14581 -28.98111,-1.7123 -32.40983,-2.29831 -42.92139,-7.33584 -34.66,-16.61035 -56.09014,-67.8141 -59.3612,-141.83366 -0.81709,-18.48958 -0.72417,-19.62659 1.66825,-20.41374 9.10044,-2.99416 19.47195,-9.229 23.2161,-13.95638 15.40525,-19.45071 13.11535,-49.01484 -6.45667,-83.36001 -7.79293,-13.6751 -21.76183,-33.59882 -23.53589,-33.56903 -3.67236,0.0617 -22.22192,27.21221 -31.33161,45.85937 -8.83932,18.09373 -10.97312,27.14272 -10.3305,43.80969 0.45249,11.73639 0.99343,14.25168 4.40276,20.47281 5.49948,10.03508 15.80788,17.82921 26.61936,20.12676 l 3.99,0.84792 -0.11199,13.23139 c -0.32448,38.33183 -11.6654,86.04296 -26.85564,112.98137 -16.9588,30.07476 -34.63937,40.71815 -72.78233,43.81368 -27.87144,2.26195 -41.87331,9.14462 -50.57822,24.86189 -3.40943,6.15593 -3.94716,8.50247 -3.92074,17.10941 0.0233,7.59296 0.7111,11.25968 2.8802,15.35477 5.59482,10.56261 18.64621,19.9207 32.30934,23.1664 7.79827,1.85251 33.70339,1.50544 44.79491,-0.60013 z"
       id="path7017"
       transform="scale(0.26458333)" />
    <path
       style="fill:none;stroke:#ffff00;stroke-width:0;stroke-miterlimit:4;stroke-dasharray:none;stroke-opacity:1"
       d="m 364.93204,470.97997 c -7.67087,-2.74127 -12.34748,-6.78259 -16.34223,-14.12226 -9.62314,-17.68088 -3.58989,-42.77847 18.38937,-76.49763 4.04583,-6.20685 7.94974,-11.28518 8.67535,-11.28518 1.91621,0 13.48077,17.58273 19.68928,29.93555 11.57308,23.02646 14.12851,41.67601 7.52607,54.92538 -4.22045,8.46933 -11.06008,14.33299 -19.73888,16.92224 -7.91454,2.36124 -11.85871,2.38766 -18.19896,0.12191 z"
       id="path7056"
       transform="scale(0.26458333)" />
    <path
       style="fill:none;stroke:#ffff00;stroke-width:0;stroke-miterlimit:4;stroke-dasharray:none;stroke-opacity:1"
       d="m 348.81669,794.52517 c -28.10522,-2.71082 -60.9948,-12.14233 -87.02431,-24.95535 -26.95987,-13.27097 -45.48988,-26.45661 -65.6436,-46.71086 -33.26056,-33.42648 -53.55026,-71.13225 -64.51432,-119.89146 -2.95653,-13.14824 -4.1386,-55.3904 -2.03321,-72.65852 6.84989,-56.18204 37.98765,-113.49452 81.53649,-150.07691 45.91612,-38.57098 102.1502,-58.16504 166.58215,-58.04346 30.56087,0.0577 53.4157,3.47512 79.79998,11.9324 66.21446,21.22455 113.96972,62.52324 143.53282,124.12702 17.4977,36.46178 24.14058,72.54447 21.82731,118.56108 -3.50664,69.75579 -41.77178,136.10019 -101.52015,176.01646 -49.01318,32.74438 -110.73515,47.66112 -172.54316,41.6996 z m -53.34127,-61.67932 c 16.77926,-3.18531 38.21119,-11.10585 60.05407,-22.19399 l 20.36958,-10.34025 16.07476,8.05804 c 20.46124,10.25691 35.50763,16.31334 50.7804,20.44002 41.42179,11.19211 74.21807,4.45723 88.77693,-18.23078 3.74444,-5.83522 4.50987,-8.38117 4.91162,-16.33709 0.39021,-7.72713 -0.0767,-10.60037 -2.59238,-15.9522 -4.18087,-8.89442 -11.75786,-16.10049 -21.93856,-20.86461 -7.68071,-3.59423 -10.45292,-4.10134 -28.13115,-5.14581 -28.98111,-1.7123 -32.40983,-2.29831 -42.92139,-7.33584 -34.66,-16.61035 -56.09014,-67.8141 -59.3612,-141.83366 -0.81709,-18.48958 -0.72417,-19.62659 1.66825,-20.41374 9.10044,-2.99416 19.47195,-9.229 23.2161,-13.95638 15.40525,-19.45071 13.11535,-49.01484 -6.45667,-83.36001 -7.79293,-13.6751 -21.76183,-33.59882 -23.53589,-33.56903 -3.67236,0.0617 -22.22192,27.21221 -31.33161,45.85937 -8.83932,18.09373 -10.97312,27.14272 -10.3305,43.80969 0.45249,11.73639 0.99343,14.25168 4.40276,20.47281 5.49948,10.03508 15.80788,17.82921 26.61936,20.12676 l 3.99,0.84792 -0.11199,13.23139 c -0.32448,38.33183 -11.6654,86.04296 -26.85564,112.98137 -16.9588,30.07476 -34.63937,40.71815 -72.78233,43.81368 -27.87144,2.26195 -41.87331,9.14462 -50.57822,24.86189 -3.40943,6.15593 -3.94716,8.50247 -3.92074,17.10941 0.0233,7.59296 0.7111,11.25968 2.8802,15.35477 5.59482,10.56261 18.64621,19.9207 32.30934,23.1664 7.79827,1.85251 33.70339,1.50544 44.79491,-0.60013 z"
       id="path7095"
       transform="scale(0.26458333)" />
    <path
       style="fill:none;stroke:#ffff00;stroke-width:0;stroke-miterlimit:4;stroke-dasharray:none;stroke-opacity:1"
       d="m 254.37564,723.63153 c -18.63553,-5.39291 -28.9407,-15.58682 -28.9407,-28.62821 0,-9.94283 7.90322,-20.74325 19.28499,-26.35457 19.00694,-9.3706 50.77852,-6.69177 84.15992,7.09598 14.66971,6.05913 34.87505,16.43752 34.87505,17.91342 0,1.72197 -33.75744,17.85793 -46.95151,22.4427 -6.43858,2.23732 -15.71533,5.02115 -20.61499,6.18628 -12.39014,2.94636 -33.88851,3.63759 -41.81276,1.3444 z"
       id="path7134"
       transform="scale(0.26458333)" />
    <path
       style="fill:none;stroke:#000000;stroke-width:0;stroke-miterlimit:4;stroke-dasharray:none;stroke-opacity:0"
       d="m 348.81669,794.52517 c -28.10522,-2.71082 -60.9948,-12.14233 -87.02431,-24.95535 -26.95987,-13.27097 -45.48988,-26.45661 -65.6436,-46.71086 -33.26056,-33.42648 -53.55026,-71.13225 -64.51432,-119.89146 -2.95653,-13.14824 -4.1386,-55.3904 -2.03321,-72.65852 6.84989,-56.18204 37.98765,-113.49452 81.53649,-150.07691 45.91612,-38.57098 102.1502,-58.16504 166.58215,-58.04346 30.56087,0.0577 53.4157,3.47512 79.79998,11.9324 66.21446,21.22455 113.96972,62.52324 143.53282,124.12702 17.4977,36.46178 24.14058,72.54447 21.82731,118.56108 -3.50664,69.75579 -41.77178,136.10019 -101.52015,176.01646 -49.01318,32.74438 -110.73515,47.66112 -172.54316,41.6996 z m -53.34127,-61.67932 c 16.77926,-3.18531 38.21119,-11.10585 60.05407,-22.19399 l 20.36958,-10.34025 16.07476,8.05804 c 20.46124,10.25691 35.50763,16.31334 50.7804,20.44002 41.42179,11.19211 74.21807,4.45723 88.77693,-18.23078 3.74444,-5.83522 4.50987,-8.38117 4.91162,-16.33709 0.39021,-7.72713 -0.0767,-10.60037 -2.59238,-15.9522 -4.18087,-8.89442 -11.75786,-16.10049 -21.93856,-20.86461 -7.68071,-3.59423 -10.45292,-4.10134 -28.13115,-5.14581 -28.98111,-1.7123 -32.40983,-2.29831 -42.92139,-7.33584 -34.66,-16.61035 -56.09014,-67.8141 -59.3612,-141.83366 -0.81709,-18.48958 -0.72417,-19.62659 1.66825,-20.41374 9.10044,-2.99416 19.47195,-9.229 23.2161,-13.95638 15.40525,-19.45071 13.11535,-49.01484 -6.45667,-83.36001 -7.79293,-13.6751 -21.76183,-33.59882 -23.53589,-33.56903 -3.67236,0.0617 -22.22192,27.21221 -31.33161,45.85937 -8.83932,18.09373 -10.97312,27.14272 -10.3305,43.80969 0.45249,11.73639 0.99343,14.25168 4.40276,20.47281 5.49948,10.03508 15.80788,17.82921 26.61936,20.12676 l 3.99,0.84792 -0.11199,13.23139 c -0.32448,38.33183 -11.6654,86.04296 -26.85564,112.98137 -16.9588,30.07476 -34.63937,40.71815 -72.78233,43.81368 -27.87144,2.26195 -41.87331,9.14462 -50.57822,24.86189 -3.40943,6.15593 -3.94716,8.50247 -3.92074,17.10941 0.0233,7.59296 0.7111,11.25968 2.8802,15.35477 5.59482,10.56261 18.64621,19.9207 32.30934,23.1664 7.79827,1.85251 33.70339,1.50544 44.79491,-0.60013 z"
       id="path7173"
       transform="scale(0.26458333)" />
  </g>
</svg>
