<?xml version="1.0" encoding="UTF-8" standalone="no"?>
<!-- Created with Inkscape (http://www.inkscape.org/) -->

<svg
   width="210mm"
   height="297mm"
   viewBox="0 0 210 297"
   version="1.1"
   id="svg5"
   inkscape:version="1.1.2 (0a00cf5339, 2022-02-04)"
   sodipodi:docname="bezier-logo-proporcao-original-passo3-negativo.svg"
   xmlns:inkscape="http://www.inkscape.org/namespaces/inkscape"
   xmlns:sodipodi="http://sodipodi.sourceforge.net/DTD/sodipodi-0.dtd"
   xmlns="http://www.w3.org/2000/svg"
   xmlns:svg="http://www.w3.org/2000/svg">
  <sodipodi:namedview
     id="namedview7"
     pagecolor="#ffffff"
     bordercolor="#666666"
     borderopacity="1.0"
     inkscape:pageshadow="2"
     inkscape:pageopacity="0.0"
     inkscape:pagecheckerboard="0"
     inkscape:document-units="mm"
     showgrid="false"
     inkscape:zoom="0.92172518"
     inkscape:cx="544.08842"
     inkscape:cy="560.36225"
     inkscape:window-width="1730"
     inkscape:window-height="862"
     inkscape:window-x="120"
     inkscape:window-y="114"
     inkscape:window-maximized="0"
     inkscape:current-layer="layer1" />
  <defs
     id="defs2" />
  <g
     inkscape:groupmode="layer"
     id="layer2"
     inkscape:label="contorno"
     style="display:inline">
    <path
       style="display:inline;fill:none;stroke:#ffcc00;stroke-width:0.264583px;stroke-linecap:butt;stroke-linejoin:miter;stroke-opacity:1"
       d="m 99.453,83.013081 c 41.36848,0.03053 67.71707,30.059519 67.845,64.854919 0.12793,34.7954 -26.7504,64.90864 -67.845,64.83503 C 58.3584,212.62942 31.440988,181.64066 31.608,147.868 31.775012,114.09534 58.08452,82.982551 99.453,83.013081 Z"
       id="path3930"
       sodipodi:nodetypes="zzzzz" />
    <path
       style="display:inline;fill:none;stroke:#ffcc00;stroke-width:0.254805px;stroke-linecap:butt;stroke-linejoin:miter;stroke-opacity:1"
       d="m 99.453,85.013 c 40.12169,0.0292 65.72092,29.58081 65.845,62.855 0.12407,33.274 -25.98893,62.90539 -65.845,62.835 C 59.597156,210.6326 33.446022,180.16398 33.608,147.868 33.769977,115.57184 59.331531,84.983805 99.453,85.013 Z"
       id="path3930-5"
       sodipodi:nodetypes="zzzzz" />
    <path
       style="fill:#ffcc00;fill-opacity:1;stroke:#ffcc00;stroke-width:6.15074;stroke-miterlimit:4;stroke-dasharray:none;stroke-opacity:0"
       d="m 348.25999,801.68977 c -61.89763,-6.40295 -115.21301,-30.96004 -156.32655,-72.00407 -14.94062,-14.91537 -22.18033,-23.77259 -33.0593,-40.44547 -19.1754,-29.38782 -32.43071,-66.23237 -36.79256,-102.26893 -1.63056,-13.47126 -1.35714,-43.5787 0.52934,-58.28745 5.55312,-43.29729 23.58545,-85.91624 51.32089,-121.29561 9.23335,-11.77806 30.23973,-32.05716 43.09059,-41.59871 35.76793,-26.55706 73.16871,-41.65824 120.38837,-48.60877 9.73887,-1.43352 19.57945,-1.90334 39.05719,-1.86473 29.51164,0.0585 45.93588,1.99758 71.33043,8.42138 100.41068,25.39984 170.28441,105.99008 182.07941,210.00489 1.65116,14.56081 0.71335,51.21552 -1.66608,65.11957 -8.68945,50.77631 -31.4605,95.62155 -66.36255,130.69418 -38.14462,38.33106 -86.70985,61.96881 -145.23909,70.691 -13.1489,1.95948 -54.84622,2.83963 -68.35009,1.44272 z m 64.0104,-6.46349 c 67.69877,-8.99749 125.59932,-41.19436 164.53069,-91.4909 72.22068,-93.30393 63.15195,-230.01154 -20.76151,-312.97168 -38.40113,-37.96487 -88.4269,-61.33564 -147.02394,-68.68585 -16.07991,-2.017 -53.4801,-1.7024 -70.37195,0.59197 -53.88495,7.31901 -101.67651,29.83031 -138.36279,65.17316 -38.58622,37.17321 -61.4697,80.35396 -71.30266,134.547 -2.80117,15.43827 -2.84179,59.47877 -0.0685,74.31717 12.67578,67.82237 47.79008,121.51554 104.0517,159.10518 34.14756,22.81472 73.46267,35.91628 122.89305,40.95344 7.4478,0.75897 47.30563,-0.32869 56.41595,-1.53949 z"
       id="path8833"
       transform="scale(0.26458333)" />
    <path
       style="fill:#ffcc00;fill-opacity:1;stroke:#ffcc00;stroke-width:6.15074;stroke-miterlimit:4;stroke-dasharray:none;stroke-opacity:0"
       d="m 353.6846,794.50442 c -60.80276,-5.30607 -116.30817,-30.39357 -156.77362,-70.85901 -18.69789,-18.6979 -32.80017,-38.44172 -44.55956,-62.3854 -11.03624,-22.47125 -16.63395,-39.24266 -21.19194,-63.49357 -2.31101,-12.2958 -3.25349,-49.59526 -1.60697,-63.59711 4.9175,-41.81776 20.83565,-81.90425 45.60518,-114.84694 39.35373,-52.33924 93.92537,-84.0265 162.79554,-94.52794 15.56949,-2.37406 54.87765,-2.70156 71.60486,-0.59658 74.21327,9.33912 135.75555,45.99031 174.50966,103.92834 42.76747,63.93805 51.39462,148.73801 22.36364,219.82155 -37.36155,91.48122 -126.61072,148.17217 -231.59081,147.10613 -9.24896,-0.094 -18.76915,-0.34118 -21.15598,-0.54947 z m -58.58579,-62.86439 c 20.89156,-2.59916 44.83132,-7.9532 70.2487,-15.71087 l 10.57799,-3.22854 10.57799,3.2591 c 54.48155,16.78579 108.71519,21.77064 137.59213,12.64669 16.57351,-5.23656 23.74518,-11.98246 22.91989,-21.55916 -0.76015,-8.82086 -8.65299,-14.83079 -25.54325,-19.44966 -7.1001,-1.94163 -12.07938,-2.32651 -34.34224,-2.65453 -21.92267,-0.32302 -27.15986,-0.7186 -33.13519,-2.50281 -30.01477,-8.96233 -51.14315,-45.03832 -63.87178,-109.05893 -6.29611,-31.66732 -9.55302,-64.93265 -10.58726,-108.13597 l -0.6927,-28.93667 3.78744,-1.5825 c 5.53044,-2.31076 11.34825,-8.84916 14.07223,-15.81519 1.91627,-4.90052 2.39988,-8.44189 2.46243,-18.03228 0.0825,-12.64008 -1.62594,-21.68218 -6.66193,-35.25997 -2.86081,-7.71317 -12.49652,-27.46132 -15.08692,-30.92028 l -1.625,-2.16984 -1.61922,2.16984 c -2.97856,3.9914 -14.29499,28.1096 -17.13061,36.50967 -4.67992,13.86357 -6.63993,28.17179 -5.20914,38.02729 1.92966,13.29193 7.48433,22.09809 15.98707,25.34532 l 4.8513,1.85273 -0.005,7.71829 c -0.003,4.24506 -0.49994,16.99437 -1.10416,28.33181 -5.30866,99.61122 -24.27602,166.94799 -55.25846,196.17525 -13.94635,13.15628 -21.94197,15.78004 -50.02174,16.41465 -41.41176,0.93592 -61.77314,9.33899 -61.77314,25.49349 0,3.53507 0.77822,5.25184 3.99445,8.81183 4.83065,5.34694 9.53651,7.85808 20.21727,10.7883 15.99909,4.38928 38.86072,4.89658 66.37928,1.47294 z"
       id="path8922"
       transform="scale(0.26458333)" />
    <path
       style="fill:#000000;fill-opacity:1;stroke:#ffcc00;stroke-width:6.15074;stroke-miterlimit:4;stroke-dasharray:none;stroke-opacity:0"
       d="m 369.4376,427.72885 c -14.64842,-7.35963 -14.8235,-35.72793 -0.41976,-68.0132 2.90416,-6.50951 5.81033,-12.00806 6.45817,-12.21902 1.5097,-0.49159 10.41916,18.51699 13.32482,28.42887 6.39858,21.82707 5.15881,39.48281 -3.38616,48.22281 -5.65631,5.78541 -9.75867,6.70477 -15.97707,3.58054 z"
       id="path8961"
       transform="scale(0.26458333)" />
    <path
       style="fill:#000000;fill-opacity:1;stroke:#ffcc00;stroke-width:6.15074;stroke-miterlimit:4;stroke-dasharray:none;stroke-opacity:0"
       d="m 368.87351,703.42848 c -11.02504,-4.1105 -59.73053,-15.43205 -67.18368,-15.61679 -0.64153,-0.0159 1.75736,-1.6026 5.33087,-3.526 8.84181,-4.759 21.14758,-16.68902 28.29518,-27.4312 17.9466,-26.97208 30.8642,-70.48565 38.62935,-130.12482 0.84449,-6.48603 1.53325,-9.3221 1.71262,-7.05199 0.68727,8.69834 3.72207,31.80186 5.7717,43.93934 6.32592,37.46065 16.16828,68.0525 28.89097,89.79838 6.60498,11.2894 21.08984,26.12832 30.12915,30.86564 5.77295,3.02549 6.18771,3.45602 3.79723,3.94158 -20.87374,4.23995 -41.23814,9.1024 -52.86606,12.62295 -15.95083,4.82937 -16.35695,4.87598 -22.50733,2.58291 z"
       id="path9000"
       transform="scale(0.26458333)" />
    <path
       style="fill:#000000;fill-opacity:1;stroke:#ffcc00;stroke-width:6.15074;stroke-miterlimit:4;stroke-dasharray:none;stroke-opacity:0"
       d="m 237.59794,725.29182 c -15.20262,-2.82284 -26.58059,-9.28548 -26.58059,-15.09765 0,-5.67044 7.37273,-10.96939 20.61351,-14.8154 6.6006,-1.91725 11.94437,-2.46626 28.30263,-2.90774 22.2144,-0.59953 38.63545,0.93142 62.28837,5.80723 14.54585,2.99847 42.02531,10.28169 41.34803,10.95897 -0.24102,0.24102 -6.46953,2.12743 -13.84113,4.19202 -17.86024,5.00218 -41.2167,9.80124 -57.53198,11.82111 -15.95028,1.97468 -44.07234,1.99603 -54.59884,0.0415 z"
       id="path9039"
       transform="scale(0.26458333)" />
    <path
       style="fill:#000000;fill-opacity:1;stroke:#ffcc00;stroke-width:6.15074;stroke-miterlimit:4;stroke-dasharray:none;stroke-opacity:0"
       d="m 473.02603,726.25892 c -22.90746,-2.26446 -48.32196,-6.68687 -65.63779,-11.42171 -20.73444,-5.66963 -20.30312,-5.50526 -17.3453,-6.61043 7.07762,-2.64451 41.4354,-10.77943 56.94496,-13.4829 15.29592,-2.66623 20.13068,-3.02994 40.68458,-3.06066 24.71215,-0.0369 29.96475,0.7135 42.38131,6.05496 5.78958,2.49061 10.77987,7.4513 10.77987,10.71594 0,5.8729 -11.27784,12.58663 -26.30167,15.65745 -8.29952,1.69639 -33.09223,2.97906 -41.50596,2.14735 z"
       id="path9078"
       transform="scale(0.26458333)" />
  </g>
  <g
     inkscape:label="Figura"
     inkscape:groupmode="layer"
     id="layer1"
     style="display:inline">
    <path
       style="display:inline;fill:none;stroke:#000000;stroke-width:2;stroke-linecap:butt;stroke-linejoin:miter;stroke-miterlimit:4;stroke-dasharray:none;stroke-opacity:1"
       d="m 73.895401,182.062 c 26.535529,-0.12803 25.557257,-66.8569 25.557257,-66.8569"
       id="path1322"
       sodipodi:nodetypes="cc" />
    <path
       style="display:inline;fill:none;stroke:#000000;stroke-width:2;stroke-linecap:butt;stroke-linejoin:miter;stroke-miterlimit:4;stroke-dasharray:none;stroke-opacity:1"
       d="M 123.8599,182.062 C 97.324372,181.93397 99.452658,115.2051 99.452658,115.2051"
       id="path1322-3"
       sodipodi:nodetypes="cc" />
    <path
       style="display:inline;fill:none;stroke:#ffcc00;stroke-width:2;stroke-linecap:butt;stroke-linejoin:miter;stroke-miterlimit:4;stroke-dasharray:none;stroke-opacity:1"
       d="m 99.435067,187.62481 c -58.890446,-19.23519 -59.884197,19.63252 0,0 z"
       id="path972"
       sodipodi:nodetypes="cc" />
    <path
       style="display:inline;fill:none;stroke:#ffcc00;stroke-width:2;stroke-linecap:butt;stroke-linejoin:miter;stroke-miterlimit:4;stroke-dasharray:none;stroke-opacity:1"
       d="m 99.470608,187.62462 c 58.891012,19.23522 59.884772,-19.63258 0,0 z"
       id="path972-6"
       sodipodi:nodetypes="cc" />
    <path
       style="display:inline;fill:none;stroke:#ffcc00;stroke-width:2;stroke-linecap:butt;stroke-linejoin:miter;stroke-miterlimit:4;stroke-dasharray:none;stroke-opacity:1"
       d="m 99.45277,89.615696 c 18.93339,32.927574 -19.324482,33.483214 0,0 z"
       id="path972-7"
       sodipodi:nodetypes="cc" />
  </g>
</svg>
