<?xml version="1.0" encoding="UTF-8" standalone="no"?>
<!-- Created with Inkscape (http://www.inkscape.org/) -->

<svg
   width="210mm"
   height="297mm"
   viewBox="0 0 210 297"
   version="1.1"
   id="svg5"
   inkscape:version="1.1.2 (0a00cf5339, 2022-02-04)"
   sodipodi:docname="bezier-logo-3.svg"
   xmlns:inkscape="http://www.inkscape.org/namespaces/inkscape"
   xmlns:sodipodi="http://sodipodi.sourceforge.net/DTD/sodipodi-0.dtd"
   xmlns="http://www.w3.org/2000/svg"
   xmlns:svg="http://www.w3.org/2000/svg">
  <sodipodi:namedview
     id="namedview7"
     pagecolor="#ffffff"
     bordercolor="#666666"
     borderopacity="1.0"
     inkscape:pageshadow="2"
     inkscape:pageopacity="0.0"
     inkscape:pagecheckerboard="0"
     inkscape:document-units="mm"
     showgrid="false"
     inkscape:zoom="0.75187991"
     inkscape:cx="616.45483"
     inkscape:cy="560.59484"
     inkscape:window-width="1846"
     inkscape:window-height="1016"
     inkscape:window-x="74"
     inkscape:window-y="27"
     inkscape:window-maximized="1"
     inkscape:current-layer="layer2" />
  <defs
     id="defs2" />
  <g
     inkscape:label="Figura"
     inkscape:groupmode="layer"
     id="layer1">
    <path
       style="fill:none;stroke:#ffff00;stroke-width:2;stroke-linecap:butt;stroke-linejoin:miter;stroke-opacity:1;stroke-miterlimit:4;stroke-dasharray:none"
       d="m 99.452863,183.47811 c -54.644338,-33.22303 -55.566438,33.90932 0,0 z"
       id="path972"
       sodipodi:nodetypes="cc" />
    <path
       style="fill:none;stroke:#ffff00;stroke-width:2;stroke-linecap:butt;stroke-linejoin:miter;stroke-opacity:1;stroke-miterlimit:4;stroke-dasharray:none"
       d="m 73.894773,173.77046 c 26.536197,-0.0911 25.5579,-47.57244 25.5579,-47.57244"
       id="path1322"
       sodipodi:nodetypes="cc" />
    <path
       style="fill:none;stroke:#ffff00;stroke-width:2;stroke-linecap:butt;stroke-linejoin:miter;stroke-opacity:1;stroke-miterlimit:4;stroke-dasharray:none"
       d="m 99.452863,183.47811 c 54.644337,33.22303 55.566437,-33.90932 0,0 z"
       id="path972-6"
       sodipodi:nodetypes="cc" />
    <path
       style="fill:none;stroke:#ffff00;stroke-width:2;stroke-linecap:butt;stroke-linejoin:miter;stroke-opacity:1;stroke-miterlimit:4;stroke-dasharray:none"
       d="m 99.452673,94.962363 c 33.292427,41.644297 -33.98016,42.347017 0,0 z"
       id="path972-7"
       sodipodi:nodetypes="cc" />
    <path
       style="fill:none;stroke:#ffff00;stroke-width:2;stroke-linecap:butt;stroke-linejoin:miter;stroke-opacity:1;stroke-miterlimit:4;stroke-dasharray:none"
       d="M 123.86053,173.77046 C 97.324333,173.67936 99.452673,126.19802 99.452673,126.19802"
       id="path1322-3"
       sodipodi:nodetypes="cc" />
  </g>
  <g
     inkscape:groupmode="layer"
     id="layer2"
     inkscape:label="contorno">
    <path
       style="fill:none;stroke:#000000;stroke-width:0;stroke-linecap:butt;stroke-linejoin:miter;stroke-opacity:1;stroke-miterlimit:4;stroke-dasharray:none"
       d="m 99.453,83.013081 c 41.36848,0.03053 67.71707,30.059519 67.845,64.854919 0.12793,34.7954 -26.7504,64.90864 -67.845,64.83503 C 58.3584,212.62942 31.440988,181.64066 31.608,147.868 31.775012,114.09534 58.08452,82.982551 99.453,83.013081 Z"
       id="path3930"
       sodipodi:nodetypes="zzzzz" />
    <path
       style="fill:none;stroke:#000000;stroke-width:0;stroke-linecap:butt;stroke-linejoin:miter;stroke-opacity:1;stroke-miterlimit:4;stroke-dasharray:none"
       d="m 99.453,85.013 c 40.12169,0.0292 65.72092,29.58081 65.845,62.855 0.12407,33.274 -25.98893,62.90539 -65.845,62.835 C 59.597156,210.6326 33.446022,180.16398 33.608,147.868 33.769977,115.57184 59.331531,84.983805 99.453,85.013 Z"
       id="path3930-5"
       sodipodi:nodetypes="zzzzz" />
    <path
       style="fill:#ffff00;stroke-width:0"
       d="M 341.18342,800.5242 C 242.95228,788.64284 163.21554,725.17146 133.04456,634.84319 c -6.48051,-19.40186 -9.71409,-35.57234 -11.55735,-57.79589 -5.24024,-63.18011 17.53295,-130.01773 61.11821,-179.37741 58.64215,-66.4114 154.86805,-96.04665 250.10645,-77.02676 61.75212,12.33241 114.24903,44.40346 149.56074,91.36863 64.86866,86.27642 64.88217,208.54475 0.0325,293.9686 -9.09074,11.97486 -30.05261,33.16713 -42.37725,42.84303 -53.03923,41.64036 -125.68328,60.53776 -198.74441,51.70081 z m 63.99305,-4.59977 C 537.6079,782.36393 630.47483,678.61051 625.33732,549.95485 622.36562,475.53633 586.7636,408.83039 527.17996,366.04178 511.85427,355.03599 482.19816,340.07155 463.50487,333.91138 394.41994,311.14523 314.12242,317.14852 252.61775,349.67795 158.9302,399.2287 108.3583,507.87072 131.531,609.80483 c 4.7459,20.8767 9.22765,33.2631 19.48988,53.86498 12.36629,24.82588 23.67527,40.3826 44.48086,61.18819 20.47132,20.47132 36.08376,31.91064 60.54767,44.36363 44.53242,22.66858 96.91814,32.0488 149.12706,26.7028 z"
       id="path5532"
       transform="scale(0.26458333)" />
    <path
       style="fill:#000000;stroke:#ffff00;stroke-width:0;stroke-miterlimit:4;stroke-dasharray:none;stroke-opacity:1"
       d="m 367.7449,472.63155 c -14.63761,-2.7315 -24.55738,-16.36249 -24.50003,-33.66607 0.0363,-10.96313 3.89674,-24.7511 10.80129,-38.57831 5.00276,-10.01865 17.72981,-29.91686 20.72495,-32.40261 1.45209,-1.20512 3.44988,0.97054 10.0356,10.92911 14.54209,21.98977 22.74839,43.12045 22.81508,58.74731 0.0967,22.66641 -18.48553,38.96237 -39.87689,34.97057 z"
       id="path6012"
       transform="scale(0.26458333)" />
    <path
       style="fill:#000000;stroke:#ffff00;stroke-width:0;stroke-miterlimit:4;stroke-dasharray:none;stroke-opacity:1"
       d="M 356.13256,795.83547 C 300.55489,792.1336 245.6358,769.41292 205.99554,733.72201 163.4092,695.37853 137.39758,647.32428 128.97174,591.42708 c -3.70521,-24.58043 -1.91529,-61.51627 4.16891,-86.02722 17.05583,-68.71152 62.71828,-126.40571 124.30206,-157.05479 52.30649,-26.03194 114.8485,-33.75529 175.47217,-21.66914 27.29037,5.44071 56.98166,17.25312 82.87885,32.9726 48.11531,29.20579 86.96739,82.7125 101.33871,139.56267 9.51292,37.63137 9.77473,82.84492 0.68584,118.44262 -29.21196,114.41192 -135.23664,186.60406 -261.68572,178.18165 z m -60.16599,-63.67916 c 21.50177,-4.38179 45.26341,-13.72074 68.59549,-26.95984 l 10.76236,-6.10678 21.81274,10.98377 c 40.91693,20.60366 75.09099,27.75256 102.16248,21.37143 21.55681,-5.08125 37.35521,-21.65143 37.35521,-39.18008 0,-12.5619 -9.26566,-26.48866 -21.89159,-32.90421 -10.83171,-5.50386 -18.63873,-6.96297 -37.34646,-6.98 -11.23384,-0.0106 -20.09723,-0.73314 -25.16167,-2.05227 -41.12698,-10.71221 -65.8333,-59.17366 -71.17435,-139.60847 -2.01308,-30.31625 -2.37748,-27.96607 4.6409,-29.9311 19.13509,-5.35749 30.04057,-20.99136 30.10233,-43.15409 0.0165,-5.9216 -0.94169,-14.64291 -2.12933,-19.38067 -3.17721,-12.6747 -16.6233,-38.68302 -27.65355,-53.48931 l -9.65124,-12.95521 -4.34198,4.97521 c -8.43546,9.66569 -20.54472,28.49808 -26.95731,41.92418 -8.33749,17.45628 -11.01808,28.78879 -10.29329,43.51601 0.67915,13.80018 4.51386,22.2591 13.79389,30.4277 5.59535,4.92523 15.92299,9.47228 21.51422,9.47228 2.15753,0 1.57824,13.44477 -1.83372,42.55999 -7.18075,61.27508 -28.78237,105.69674 -58.46705,120.2319 -10.39503,5.08995 -20.37501,7.26318 -39.81473,8.67003 -22.19163,1.60602 -31.41223,4.76072 -42.07775,14.39638 -12.60968,11.39209 -16.04443,28.76499 -8.44398,42.70952 11.33425,20.79495 40.13142,28.87475 76.49838,21.46363 z"
       id="path6051"
       transform="scale(0.26458333)" />
    <path
       style="fill:#000000;stroke:#ffff00;stroke-width:0;stroke-miterlimit:4;stroke-dasharray:none;stroke-opacity:1"
       d="m 369.7399,684.72577 c -10.78338,-6.68551 -36.15562,-18.34648 -49.98783,-22.97419 l -14.2355,-4.76264 8.17167,-3.88691 c 5.82833,-2.77229 11.62612,-7.34461 20.21798,-15.94456 10.91014,-10.9204 12.81939,-13.62567 20.24283,-28.68264 8.64903,-17.54283 16.15245,-40.24014 19.06773,-57.67849 l 1.74925,-10.46351 2.26984,12.86424 c 4.41095,24.99884 12.6169,49.05264 22.63551,66.35062 7.39128,12.76168 23.12042,28.21427 34.34633,33.74244 5.33673,2.62806 7.86861,4.511 6.64999,4.94554 -1.0823,0.38594 -6.45657,2.28927 -11.94282,4.22964 -12.76447,4.51451 -31.40402,13.1973 -43.51437,20.27013 -5.21659,3.04665 -9.67954,5.48295 -9.91766,5.414 -0.23813,-0.069 -2.82695,-1.6096 -5.75295,-3.42367 z"
       id="path6090"
       transform="scale(0.26458333)" />
    <path
       style="fill:#000000;stroke:#ffff00;stroke-width:0;stroke-miterlimit:4;stroke-dasharray:none;stroke-opacity:1"
       d="m 260.5299,725.5506 c -21.93834,-3.32562 -36.3032,-15.48445 -36.39575,-30.80642 -0.0453,-7.50235 6.20016,-18.09386 13.72867,-23.28202 23.13679,-15.94435 62.80803,-11.53329 110.92468,12.33377 9.68967,4.80631 17.31575,9.22713 16.94685,9.82402 -1.14609,1.85441 -20.62061,11.93118 -34.65784,17.93314 -26.93291,11.51579 -52.91282,16.6706 -70.54661,13.99751 z"
       id="path6129"
       transform="scale(0.26458333)" />
    <path
       style="fill:none;stroke:#ffff00;stroke-width:0;stroke-miterlimit:4;stroke-dasharray:none;stroke-opacity:1"
       d="m 465.49987,724.13197 c -17.57407,-2.1802 -40.48798,-9.90839 -63.17498,-21.30706 -20.34347,-10.22121 -20.46931,-8.60662 1.52663,-19.58727 45.94624,-22.93694 81.82894,-28.38598 105.92542,-16.08554 12.52094,6.39152 16.90291,12.87482 16.90291,25.00849 0,7.71379 -0.53603,9.75013 -3.81021,14.47477 -9.49775,13.70526 -32.17701,20.62197 -57.36977,17.49661 z"
       id="path6168"
       transform="scale(0.26458333)" />
    <path
       style="fill:#000000;stroke:#ffff00;stroke-width:0;stroke-miterlimit:4;stroke-dasharray:none;stroke-opacity:1"
       d="m 465.49987,724.13197 c -17.57407,-2.1802 -40.48798,-9.90839 -63.17498,-21.30706 -20.34347,-10.22121 -20.46931,-8.60662 1.52663,-19.58727 45.94624,-22.93694 81.82894,-28.38598 105.92542,-16.08554 12.52094,6.39152 16.90291,12.87482 16.90291,25.00849 0,7.71379 -0.53603,9.75013 -3.81021,14.47477 -9.49775,13.70526 -32.17701,20.62197 -57.36977,17.49661 z"
       id="path6281"
       transform="scale(0.26458333)" />
  </g>
</svg>
