<?xml version="1.0" encoding="UTF-8" standalone="no"?>
<!-- Created with Inkscape (http://www.inkscape.org/) -->

<svg
   width="210mm"
   height="297mm"
   viewBox="0 0 210 297"
   version="1.1"
   id="svg5"
   inkscape:version="1.1.2 (0a00cf5339, 2022-02-04)"
   sodipodi:docname="logo-oval.svg"
   inkscape:export-filename="/home/fabio/MeuGithub/MyLogo/curvas/bezier-logo-Github.png"
   inkscape:export-xdpi="96"
   inkscape:export-ydpi="96"
   xmlns:inkscape="http://www.inkscape.org/namespaces/inkscape"
   xmlns:sodipodi="http://sodipodi.sourceforge.net/DTD/sodipodi-0.dtd"
   xmlns="http://www.w3.org/2000/svg"
   xmlns:svg="http://www.w3.org/2000/svg">
  <sodipodi:namedview
     id="namedview7"
     pagecolor="#ffffff"
     bordercolor="#666666"
     borderopacity="1.0"
     inkscape:pageshadow="2"
     inkscape:pageopacity="0.0"
     inkscape:pagecheckerboard="0"
     inkscape:document-units="mm"
     showgrid="false"
     inkscape:zoom="0.92172518"
     inkscape:cx="392.19933"
     inkscape:cy="602.67422"
     inkscape:window-width="1850"
     inkscape:window-height="1016"
     inkscape:window-x="70"
     inkscape:window-y="27"
     inkscape:window-maximized="1"
     inkscape:current-layer="layer3" />
  <defs
     id="defs2" />
  <g
     inkscape:groupmode="layer"
     id="layer2"
     inkscape:label="contorno"
     style="display:inline">
    <path
       style="display:inline;fill:none;stroke:#000000;stroke-width:0.246729px;stroke-linecap:butt;stroke-linejoin:miter;stroke-opacity:1"
       d="m 99.453208,82.855791 c 31.101922,0.0353 50.911502,34.768179 51.007692,75.014079 0.0962,40.24589 -20.11168,75.07619 -51.007692,74.99106 -30.896024,-0.0851 -51.133255,-35.92812 -51.00769,-74.99106 0.125563,-39.06297 19.905756,-75.049392 51.00769,-75.014079 z"
       id="path3930"
       sodipodi:nodetypes="zzzzz" />
    <path
       style="fill:#000000;stroke:#000000;stroke-width:5.05857;stroke-miterlimit:4;stroke-dasharray:none"
       d="m 95.252823,232.33681 c -0.415437,-0.0736 -1.67795,-0.29583 -2.805577,-0.49392 -7.114852,-1.24995 -15.300201,-5.6379 -21.183571,-11.35598 -18.97934,-18.44604 -27.111001,-53.30723 -20.046223,-85.93999 2.845473,-13.14344 8.000937,-24.78413 14.91197,-33.67017 6.931466,-8.912342 15.788569,-14.742864 25.778294,-16.969548 3.188607,-0.71073 11.245364,-0.801157 14.459524,-0.162289 10.09292,2.006155 19.31215,7.84532 26.39143,16.715507 7.8972,9.89503 13.74607,24.34143 16.10184,39.77081 3.58773,23.49824 0.019,47.41524 -9.76203,65.42353 -7.65478,14.09351 -18.71941,23.23399 -31.54427,26.05871 -2.34183,0.51579 -10.557389,0.93209 -12.301387,0.62334 z"
       id="path1036" />
  </g>
  <g
     inkscape:groupmode="layer"
     id="layer3"
     inkscape:label="Nome" />
  <g
     inkscape:label="Figura"
     inkscape:groupmode="layer"
     id="layer1"
     style="display:inline">
    <path
       style="display:inline;fill:none;stroke:#ffcc00;stroke-width:5;stroke-linecap:butt;stroke-linejoin:miter;stroke-miterlimit:4;stroke-dasharray:none;stroke-opacity:1"
       d="m 99.435067,187.62481 c -58.890446,-19.23519 -59.884197,19.63252 0,0 z"
       id="path972"
       sodipodi:nodetypes="cc" />
    <path
       style="display:inline;fill:none;stroke:#ffcc00;stroke-width:5;stroke-linecap:butt;stroke-linejoin:miter;stroke-miterlimit:4;stroke-dasharray:none;stroke-opacity:1"
       d="m 73.895401,182.062 c 26.535529,-0.12803 25.557257,-66.8569 25.557257,-66.8569"
       id="path1322"
       sodipodi:nodetypes="cc" />
    <path
       style="display:inline;fill:none;stroke:#ffcc00;stroke-width:5;stroke-linecap:butt;stroke-linejoin:miter;stroke-miterlimit:4;stroke-dasharray:none;stroke-opacity:1"
       d="m 99.470608,187.62462 c 58.891012,19.23522 59.884772,-19.63258 0,0 z"
       id="path972-6"
       sodipodi:nodetypes="cc" />
    <path
       style="display:inline;fill:none;stroke:#ffcc00;stroke-width:5;stroke-linecap:butt;stroke-linejoin:miter;stroke-miterlimit:4;stroke-dasharray:none;stroke-opacity:1"
       d="m 99.45277,89.615696 c 18.93339,32.927574 -19.324482,33.483214 0,0 z"
       id="path972-7"
       sodipodi:nodetypes="cc" />
    <path
       style="display:inline;fill:none;stroke:#ffcc00;stroke-width:5;stroke-linecap:butt;stroke-linejoin:miter;stroke-miterlimit:4;stroke-dasharray:none;stroke-opacity:1"
       d="M 123.8599,182.062 C 97.324372,181.93397 99.452658,115.2051 99.452658,115.2051"
       id="path1322-3"
       sodipodi:nodetypes="cc" />
  </g>
</svg>
