<?xml version="1.0" encoding="UTF-8" standalone="no"?>
<svg
   width="504pt"
   height="504pt"
   viewBox="0 0 504 504"
   version="1.1"
   id="svg17"
   sodipodi:docname="medita-2023-05-15-Camadas.svg"
   inkscape:version="1.1.2 (0a00cf5339, 2022-02-04)"
   xmlns:inkscape="http://www.inkscape.org/namespaces/inkscape"
   xmlns:sodipodi="http://sodipodi.sourceforge.net/DTD/sodipodi-0.dtd"
   xmlns="http://www.w3.org/2000/svg"
   xmlns:svg="http://www.w3.org/2000/svg">
  <defs
     id="defs21" />
  <sodipodi:namedview
     id="namedview19"
     pagecolor="#ffffff"
     bordercolor="#666666"
     borderopacity="1.0"
     inkscape:pageshadow="2"
     inkscape:pageopacity="0.0"
     inkscape:pagecheckerboard="0"
     inkscape:document-units="pt"
     showgrid="false"
     inkscape:zoom="1.2559524"
     inkscape:cx="289.4218"
     inkscape:cy="295.79147"
     inkscape:window-width="1846"
     inkscape:window-height="1016"
     inkscape:window-x="74"
     inkscape:window-y="27"
     inkscape:window-maximized="1"
     inkscape:current-layer="layer2" />
  <g
     inkscape:groupmode="layer"
     id="layer2"
     inkscape:label="Fundo">
    <rect
       style="opacity:1;fill:#00ff00;stroke-width:0"
       id="rect278"
       width="15"
       height="150"
       x="92.5"
       y="190" />
    <circle
       style="opacity:1;fill:#00ff00;stroke-width:0"
       id="path324"
       cx="100"
       cy="180"
       r="20" />
    <circle
       style="fill:#ffffff;fill-opacity:1;stroke-width:0"
       id="path324-3"
       cx="100"
       cy="180"
       r="10" />
  </g>
  <g
     inkscape:groupmode="layer"
     id="layer1"
     inkscape:label="Medita"
     style="display:none">
    <g
       id="surface28"
       transform="translate(0.16419579,0.26894601)"
       style="opacity:1;fill:#ffffff;fill-opacity:0">
      <rect
         x="0"
         y="0"
         width="504"
         height="504"
         style="fill:#ffffff;fill-opacity:0;stroke:none"
         id="rect2" />
      <path
         style="fill:#ffffff;fill-opacity:0;stroke:#ffff00;stroke-width:0.75;stroke-linecap:round;stroke-linejoin:round;stroke-miterlimit:10;stroke-opacity:1"
         d="m 458.39844,244.80078 -0.008,-1.71875 -0.0273,-1.72266 -0.0508,-1.71875 -0.0664,-1.71875 -0.0859,-1.71875 -0.10547,-1.71484 -0.125,-1.71875 -0.14453,-1.71484 -0.16407,-1.71485 -0.17968,-1.71093 -0.20313,-1.71094 -0.21875,-1.70703 -0.23828,-1.70703 -0.26172,-1.70704 -0.27734,-1.69921 -0.29297,-1.69922 -0.31641,-1.69922 -0.33594,-1.69141 -0.35156,-1.6914 -0.37109,-1.6875 -0.39063,-1.6836 -0.41015,-1.67969 -0.42969,-1.67578 -0.44531,-1.67578 -0.46875,-1.66797 -0.48438,-1.66406 -0.5,-1.66016 -0.52344,-1.65625 -0.53906,-1.64843 -0.55859,-1.64844 -0.57813,-1.64063 -0.59375,-1.63281 -0.61328,-1.6289 -0.6289,-1.625 -0.65235,-1.6211 -0.66406,-1.61328 -0.6875,-1.60547 L 444.703,181 l -0.71875,-1.59375 -0.74218,-1.58594 -0.75391,-1.58203 -0.77344,-1.57422 -0.79297,-1.5664 -0.80859,-1.5586 -0.82812,-1.55469 -0.84375,-1.54296 -0.85938,-1.53907 -0.87891,-1.52734 -0.89453,-1.52344 -0.91406,-1.51172 -0.92578,-1.50781 -0.94922,-1.49609 -0.96094,-1.48828 -0.98047,-1.48047 -0.99218,-1.46875 -1.01172,-1.46094 -1.02735,-1.45313 -1.04687,-1.44531 -1.05859,-1.43359 -1.07813,-1.42578 -1.08984,-1.41407 -1.10938,-1.40234 -1.12109,-1.39453 -1.14063,-1.38672 -1.15234,-1.375 -1.17188,-1.36328 -1.18359,-1.35156 -1.19922,-1.34375 -1.21484,-1.33203 -1.23047,-1.32032 -1.24609,-1.3125 -1.25782,-1.29687 -1.27343,-1.28906 -1.28516,-1.27344 -1.30469,-1.26563 -1.3125,-1.2539 -1.33203,-1.23828 -1.34375,-1.23047 -1.35547,-1.21485 -1.37109,-1.20703 -1.38281,-1.1914 -1.39844,-1.17969 -1.41016,-1.16797 -1.42187,-1.15234 -1.4375,-1.14453 -1.44922,-1.12891 -1.46094,-1.11328 -1.47266,-1.10156 -1.48828,-1.08985 -1.49609,-1.07812 -1.51172,-1.0625 -1.51953,-1.04688 -1.53516,-1.03515 -1.54297,-1.02344 -1.55859,-1.00781 -1.56641,-0.99219 -1.57812,-0.98047 -1.58984,-0.96484 -1.59766,-0.94922 -1.61328,-0.9375 -1.6211,-0.921879 -1.6289,-0.90625 -1.64063,-0.894531 -1.65234,-0.878906 -1.66016,-0.863282 -1.67187,-0.847656 -1.67969,-0.832031 -1.6875,-0.820313 -1.69922,-0.800781 -1.70312,-0.789062 -1.71875,-0.773438 -1.72266,-0.753906 -1.73047,-0.742187 -1.74219,-0.726563 -1.75,-0.710937 -1.7539,-0.695313 -1.76563,-0.679687 -1.76953,-0.660157 -1.78125,-0.648437 -1.78515,-0.632813 -1.79297,-0.613281 -1.80078,-0.601562 -1.80469,-0.582032 -1.8125,-0.566406 -1.82031,-0.550781 -1.82422,-0.535157 -1.83203,-0.515624 -1.83594,-0.503907 -1.84375,-0.484375 -1.84766,-0.46875 -1.85156,-0.449218 -1.85547,-0.4375 -1.86328,-0.417969 -1.86719,-0.402344 -1.87109,-0.382813 -1.875,-0.371093 -1.87891,-0.351563 -1.88281,-0.332031 -1.88672,-0.320313 -1.89062,-0.300781 -1.89454,-0.28125 -1.89843,-0.269531 -1.89844,-0.246094 -1.90234,-0.234375 -1.90625,-0.214843 -1.90625,-0.199219 -1.91016,-0.183594 -1.91016,-0.164063 -1.91406,-0.148437 -1.91406,-0.128906 -1.91406,-0.113281 -1.91797,-0.09375 -1.91797,-0.08203 -1.91797,-0.05859 -1.92188,-0.04687 -1.91796,-0.02734 -1.91797,-0.0078 -1.92188,0.0078 -1.91797,0.02344 -1.92187,0.04297 -1.91797,0.05859 -1.91797,0.07422 -1.91797,0.09375 -1.91406,0.109376 -1.91797,0.128906 -1.91016,0.144531 -1.91406,0.160156 -1.91015,0.179688 -1.90625,0.195312 -1.90625,0.214844 -1.90235,0.230469 -1.89844,0.246094 -1.89843,0.265624 -1.89453,0.28125 -1.89063,0.296876 -1.88672,0.316406 -1.88281,0.332031 -1.88281,0.347656 -1.875,0.363281 -1.8711,0.382813 -1.86718,0.402344 -1.86329,0.414062 -1.85937,0.433594 -1.85156,0.449219 -1.84766,0.464844 -1.84375,0.480468 -1.83984,0.5 -1.83203,0.515625 -1.82422,0.53125 -1.82032,0.546875 -1.8125,0.566406 -1.80859,0.578126 -1.80078,0.597656 -1.79297,0.613281 -1.78906,0.628906 -1.77735,0.644531 -1.77343,0.660157 L 190.00781,87 188.25,87.691406 l -1.75,0.710938 -1.74219,0.722656 -1.73437,0.738281 -1.72657,0.753907 -1.71484,0.769531 -1.70703,0.785156 -1.69922,0.800781 -1.69141,0.816406 -1.67968,0.832032 -1.67188,0.847656 -1.66406,0.859375 -1.65234,0.875 -1.64063,0.890625 -1.63281,0.90625 -1.625,0.917969 -1.60938,0.933591 -1.60156,0.94922 -1.59375,0.96485 -1.57812,0.97656 -1.57032,0.99219 -1.55859,1.0039 -1.54688,1.01953 -1.53515,1.03125 -1.52344,1.04688 -1.51172,1.0625 -1.5,1.07422 -1.48828,1.08593 -1.47266,1.10157 -1.46484,1.11328 -1.44922,1.125 -1.4375,1.14062 -1.42578,1.15235 -1.41406,1.16406 -1.39844,1.17969 -1.38672,1.1875 -1.37109,1.20312 -1.35938,1.21485 -1.34765,1.22656 -1.33203,1.23828 -1.31641,1.25391 -1.30469,1.26171 -1.28906,1.27344 -1.27734,1.28516 -1.26172,1.29687 -1.2461,1.3086 -1.23046,1.32031 -1.21875,1.32812 -1.19922,1.34375 -1.1875,1.35157 -1.17188,1.35937 -1.15625,1.375 -1.14453,1.38281 -1.125,1.39453 -1.10937,1.40235 -1.09375,1.41406 -1.07813,1.42188 -1.06641,1.43359 -1.04296,1.44141 -1.03125,1.44921 -1.01563,1.46094 -0.99609,1.46875 -0.98438,1.48047 -0.964842,1.48438 -0.949219,1.49609 -0.929688,1.50391 -0.914062,1.51171 -0.898438,1.52344 -0.882812,1.52735 -0.863281,1.53515 -0.84375,1.54297 -0.832032,1.55078 -0.808594,1.5586 -0.796874,1.5664 -0.777344,1.57422 -0.757813,1.57813 -0.742187,1.58984 -0.722656,1.58984 -0.707032,1.60157 -0.6875,1.60546 -0.671875,1.60938 -0.652343,1.62109 -0.632813,1.6211 -0.617187,1.6289 -0.597657,1.63672 -0.578125,1.64063 -0.5625,1.64453 -0.542968,1.64844 -0.523438,1.65625 -0.503906,1.65625 -0.488282,1.66406 -0.46875,1.66797 -0.449218,1.67187 -0.433594,1.67578 -0.410156,1.67969 -0.394532,1.68359 -0.375,1.6875 -0.355468,1.69141 -0.339844,1.69141 -0.316406,1.69922 -0.300782,1.69531 -0.28125,1.70312 -0.261718,1.70313 -0.242188,1.70703 -0.222656,1.70703 -0.203125,1.71094 -0.1875,1.71094 -0.164063,1.71484 -0.148437,1.71484 -0.125,1.71875 -0.109375,1.71485 -0.08984,1.71875 -0.07031,1.71875 -0.05078,1.71875 -0.03125,1.71875 -0.01562,1.72265 0.0078,1.71875 0.02734,1.71875 0.04297,1.72266 0.06641,1.71875 0.08203,1.71484 0.101562,1.71875 0.121094,1.71875 0.140625,1.71485 0.160157,1.71484 0.179687,1.71094 0.199219,1.71094 0.214844,1.70703 0.238281,1.70703 0.253906,1.70703 0.277344,1.70312 0.292969,1.69922 0.3125,1.69532 0.328124,1.69531 0.351563,1.6914 0.371094,1.6875 0.386719,1.6836 0.40625,1.68359 0.425781,1.67578 0.445312,1.67188 0.460938,1.67187 0.480469,1.66407 0.5,1.66015 0.519531,1.65625 0.535156,1.65235 0.558594,1.64453 0.570312,1.64062 0.59375,1.63672 0.609375,1.63281 0.628906,1.625 0.648438,1.61719 0.664062,1.61719 0.679688,1.60547 0.703125,1.60156 0.71875,1.59375 0.734375,1.58984 0.753906,1.58203 0.769532,1.57422 0.789062,1.57032 0.808594,1.55859 0.824218,1.55469 0.839844,1.54687 0.859375,1.53906 0.875,1.53125 0.890625,1.52344 0.910156,1.51172 0.925782,1.50781 0.941406,1.5 0.96094,1.48828 0.97656,1.48047 0.99219,1.47266 1.01172,1.46484 1.02343,1.45313 1.04297,1.44531 1.05469,1.43359 1.07422,1.42579 1.08984,1.41796 1.10547,1.40625 1.1211,1.39454 1.13671,1.38671 1.15235,1.37891 1.16797,1.36328 1.17968,1.35547 1.19922,1.34375 1.21094,1.33594 1.22656,1.32031 1.24219,1.3125 1.25781,1.30078 1.26953,1.28906 1.28516,1.27735 1.30078,1.26562 1.3125,1.25782 1.32813,1.24218 1.34375,1.23047 1.35156,1.21875 1.37109,1.20703 1.37891,1.19141 1.39844,1.18359 1.40625,1.16797 1.42187,1.15625 1.43359,1.14453 1.44532,1.12891 1.46093,1.12109 1.47266,1.10157 1.48438,1.09375 1.49609,1.07812 1.50781,1.0625 1.51953,1.05078 1.53125,1.03906 1.54297,1.02344 1.55469,1.00781 1.56641,0.9961 1.57421,0.98437 1.58985,0.96485 1.59765,0.95312 1.60938,0.94141 1.61719,0.92187 1.6289,0.91016 1.64063,0.89453 1.64844,0.88281 1.66015,0.86328 1.66797,0.85157 1.67969,0.83593 1.6875,0.82032 1.69531,0.80468 1.70313,0.79297 1.71484,0.77344 1.72266,0.76172 1.73046,0.74219 1.74219,0.73047 1.7461,0.71093 1.7539,0.69922 1.76563,0.67969 1.76953,0.66406 1.77734,0.65235 1.78516,0.63281 1.79297,0.61719 1.79687,0.60156 1.80469,0.58594 1.8125,0.57031 1.81641,0.55078 1.82421,0.53906 1.83204,0.51953 1.83593,0.50391 1.83985,0.48828 1.84765,0.47266 1.85157,0.45312 1.85546,0.4375 1.86329,0.42188 1.86718,0.40234 1.86719,0.39063 1.875,0.37109 1.87891,0.35156 1.88281,0.33985 1.88672,0.32031 1.89062,0.30078 1.89453,0.28906 1.89454,0.26953 1.89843,0.25 1.90235,0.23828 1.90625,0.21875 1.90625,0.19922 1.91015,0.1836 1.91016,0.16797 1.91016,0.15234 1.91406,0.13281 1.91797,0.11328 1.91797,0.10157 1.91406,0.0781 1.92187,0.0664 1.91797,0.0469 1.91797,0.0312 1.92188,0.0117 1.91796,-0.004 1.92188,-0.0234 1.91797,-0.0391 1.92187,-0.0547 1.91797,-0.0742 1.91797,-0.0899 1.91406,-0.10937 1.91407,-0.125 1.91406,-0.14063 1.91406,-0.16015 1.90625,-0.17578 1.91016,-0.19141 1.90625,-0.21094 1.90234,-0.22656 1.89844,-0.24609 1.89844,-0.26172 1.89453,-0.27735 1.89062,-0.29687 1.89063,-0.3125 1.88281,-0.32813 1.88281,-0.34765 1.875,-0.36328 1.875,-0.37891 1.86719,-0.39453 1.86328,-0.41406 1.85938,-0.42969 1.85546,-0.44531 1.84766,-0.46485 1.84375,-0.48047 1.83984,-0.49609 1.83204,-0.51172 1.82421,-0.52734 1.82422,-0.54688 1.8125,-0.5625 1.8086,-0.57812 1.80078,-0.59375 1.79687,-0.60938 1.78907,-0.625 1.78125,-0.64453 1.77343,-0.65625 1.76563,-0.67578 1.75781,-0.6875 1.75391,-0.70703 1.74218,-0.71875 1.73438,-0.73828 1.72656,-0.75391 1.71875,-0.76562 1.71094,-0.78125 1.69922,-0.80078 1.6914,-0.8125 1.6836,-0.82813 1.67187,-0.84375 1.66407,-0.85937 1.65234,-0.8711 1.64453,-0.89062 1.63672,-0.90235 1.62109,-0.91797 1.61719,-0.92968 1.60156,-0.94922 1.59375,-0.96094 1.58203,-0.97266 1.57032,-0.98828 1.55859,-1.0039 1.54688,-1.01563 1.53906,-1.03125 1.52344,-1.04687 1.51562,-1.0586 1.5,-1.07031 1.49219,-1.08594 1.47656,-1.09765 1.46484,-1.10938 1.45313,-1.125 1.44141,-1.14062 1.42578,-1.14844 1.41406,-1.16406 1.40234,-1.17578 1.38672,-1.1875 1.375,-1.19922 1.36328,-1.21485 1.34766,-1.22265 1.33203,-1.23828 1.32031,-1.25 1.3086,-1.25782 1.29297,-1.27343 1.27734,-1.28516 1.26172,-1.29297 1.25,-1.30859 1.23437,-1.31641 1.21875,-1.32812 1.20313,-1.33985 1.1914,-1.35156 1.17579,-1.35938 1.15625,-1.37109 1.14453,-1.38281 1.1289,-1.39063 1.11328,-1.40234 1.09766,-1.41016 1.07813,-1.42187 1.0664,-1.42969 1.05078,-1.44141 1.03125,-1.44921 1.01953,-1.46094 1,-1.46485 0.98438,-1.48046 0.96484,-1.48438 0.95313,-1.49219 0.93359,-1.5039 0.91797,-1.51172 0.89844,-1.51953 0.88672,-1.52735 0.86328,-1.53515 0.85156,-1.54297 0.83203,-1.54688 0.8125,-1.55859 0.79688,-1.56641 0.78125,-1.57031 0.76172,-1.57812 0.74609,-1.58594 0.72656,-1.59375 0.70703,-1.59766 0.69141,-1.60547 0.67578,-1.60937 0.65234,-1.61719 0.63672,-1.62109 0.6211,-1.62891 0.59765,-1.63281 0.58594,-1.64063 0.5625,-1.64453 0.54688,-1.64844 0.52734,-1.65234 0.50781,-1.66016 0.48828,-1.66406 0.47266,-1.66406 0.45312,-1.67188 0.4336,-1.67578 0.41797,-1.67968 0.39453,-1.6836 0.3789,-1.6875 0.35938,-1.6875 0.33984,-1.6914 0.32032,-1.69922 0.30468,-1.69532 0.28125,-1.70312 0.26563,-1.70313 0.24609,-1.70703 0.22656,-1.70703 0.20704,-1.71094 0.1875,-1.71093 0.16796,-1.71485 0.15235,-1.71484 0.1289,-1.71484 0.11329,-1.71485 0.0937,-1.71875 0.0703,-1.71875 0.0547,-1.71875 0.0351,-1.72265 0.0156,-1.71875"
         id="path4" />
      <path
         style="fill:#ffffff;fill-opacity:0;stroke:#ffff00;stroke-width:0.75;stroke-linecap:round;stroke-linejoin:round;stroke-miterlimit:10;stroke-opacity:1"
         d="m 449.67187,244.80078 -0.008,-1.64062 -0.0273,-1.64454 -0.0469,-1.64062 -0.0625,-1.64063 -0.082,-1.64062 -0.10156,-1.63672 -0.12109,-1.64062 -0.13672,-1.63672 -0.15625,-1.63672 -0.17188,-1.63281 -0.1914,-1.63282 -0.21094,-1.63281 -0.23047,-1.62891 -0.24609,-1.625 -0.26563,-1.625 -0.28125,-1.62109 -0.30078,-1.62109 -0.32031,-1.61719 -0.33594,-1.61328 -0.35547,-1.60938 -0.375,-1.60937 -0.39062,-1.60156 -0.40625,-1.60157 -0.42969,-1.59765 -0.44141,-1.59375 -0.46484,-1.58594 -0.48047,-1.58594 -0.49609,-1.58203 -0.51563,-1.57422 -0.53125,-1.57031 -0.55078,-1.56641 -0.57031,-1.5625 -0.58203,-1.55468 -0.60547,-1.55079 -0.61719,-1.54296 -0.63672,-1.53907 -0.65625,-1.53515 -0.67187,-1.52735 -0.6875,-1.52343 -0.70313,-1.51563 -0.72266,-1.50781 -0.73828,-1.50391 -0.75781,-1.49219 -0.77344,-1.49218 -0.78906,-1.48047 -0.80469,-1.47656 -0.82031,-1.46485 -0.83984,-1.46094 -0.85157,-1.45312 -0.87109,-1.44531 -0.88672,-1.4375 -0.90234,-1.42578 -0.92188,-1.42188 -0.93359,-1.41406 -0.94922,-1.40235 -0.96484,-1.39453 -0.98047,-1.38672 -1,-1.3789 -1.01172,-1.36719 -1.02734,-1.35937 -1.04297,-1.35157 -1.05469,-1.33984 -1.07422,-1.33203 -1.08594,-1.32422 -1.10156,-1.30859 -1.11719,-1.30469 -1.1289,-1.29297 -1.14844,-1.28125 -1.15625,-1.26953 -1.17578,-1.26172 -1.1875,-1.25 -1.20313,-1.23828 -1.21484,-1.23047 -1.22656,-1.21875 -1.24219,-1.20703 -1.25781,-1.19531 -1.26953,-1.1836 -1.28125,-1.17187 -1.29688,-1.16407 -1.30859,-1.14843 -1.32032,-1.13672 -1.33203,-1.12891 -1.34765,-1.11328 -1.35938,-1.10156 -1.37109,-1.08984 -1.38281,-1.07813 -1.39454,-1.0625 -1.40625,-1.05469 -1.41796,-1.03906 -1.42969,-1.02734 -1.44141,-1.01172 -1.45312,-1.00391 -1.46485,-0.98828 -1.47265,-0.97266 -1.48438,-0.96093 -1.49609,-0.94922 -1.50781,-0.9375 -1.51563,-0.91797 -1.52734,-0.91016 -1.53907,-0.89453 -1.54687,-0.8789 -1.55469,-0.86719 -1.5664,-0.85156 -1.57813,-0.83985 -1.58594,-0.82031 -1.59375,-0.8125 -1.60156,-0.79297 -1.61328,-0.78125 -1.62109,-0.769531 -1.62891,-0.75 -1.63672,-0.738281 -1.64453,-0.722657 -1.65625,-0.707031 -1.66016,-0.695312 -1.66797,-0.675782 -1.67578,-0.664062 -1.6875,-0.648438 -1.6875,-0.632812 -1.69922,-0.617188 -1.70703,-0.601562 -1.71093,-0.589844 -1.71875,-0.570312 -1.72266,-0.558594 -1.73047,-0.539063 -1.73437,-0.527343 -1.74219,-0.507813 -1.75,-0.496094 -1.75391,-0.476562 -1.75781,-0.464844 -1.76172,-0.445313 -1.76953,-0.429687 -1.77344,-0.417969 -1.77734,-0.398437 -1.78125,-0.382813 -1.78516,-0.367187 -1.79297,-0.351563 -1.79297,-0.335937 -1.79687,-0.320313 -1.80078,-0.304687 -1.80469,-0.285157 -1.80859,-0.273437 -1.8086,-0.253906 -1.8164,-0.238281 -1.8125,-0.222657 -1.82032,-0.203125 -1.82031,-0.191406 -1.82031,-0.171875 -1.82813,-0.160156 -1.82421,-0.140625 -1.82813,-0.121094 -1.82812,-0.109375 -1.82813,-0.09375 -1.83203,-0.07422 -1.83203,-0.05859 -1.83203,-0.04297 -1.83203,-0.02344 -1.83204,-0.01172 -1.83203,0.0078 -1.83593,0.02344 -1.83204,0.03906 -1.83203,0.05859 -1.82812,0.07031 -1.83203,0.08984 -1.82813,0.105469 -1.82812,0.121093 -1.82422,0.136719 -1.82422,0.15625 -1.82422,0.171875 -1.82031,0.1875 -1.82031,0.203125 -1.81641,0.21875 -1.8125,0.234375 -1.8125,0.253906 -1.80469,0.265626 -1.80859,0.285156 -1.80078,0.300781 -1.79688,0.316406 -1.79687,0.335938 -1.78907,0.347656 -1.78515,0.363281 -1.78516,0.382813 -1.77734,0.398437 -1.77344,0.410156 -1.76953,0.429688 -1.76563,0.445312 -1.75781,0.460938 -1.7539,0.476562 -1.75,0.488282 -1.74219,0.507812 -1.73828,0.523438 -1.73047,0.539062 -1.72656,0.554688 -1.71875,0.570312 -1.71094,0.582032 -1.70703,0.601562 -1.69922,0.617188 -1.69141,0.628906 -1.68359,0.644531 -1.67969,0.664063 -1.66797,0.675781 -1.66406,0.6875 -1.65625,0.707031 -1.64453,0.71875 -1.64063,0.738281 -1.6289,0.746094 -1.6211,0.765625 -1.61328,0.777335 -1.60547,0.79688 -1.59765,0.80469 -1.58594,0.82422 -1.57813,0.83593 -1.5664,0.84766 -1.5586,0.86328 -1.55078,0.87891 -1.53515,0.89062 -1.53125,0.90625 -1.51953,0.92188 -1.50782,0.92968 -1.49609,0.94922 -1.48828,0.95703 -1.47656,0.97266 -1.46485,0.98828 -1.45312,0.9961 -1.44532,1.01562 -1.42968,1.02344 -1.42188,1.03906 -1.40625,1.05078 -1.39844,1.0625 -1.38281,1.07422 -1.375,1.08594 -1.35937,1.10156 -1.34766,1.11328 -1.33594,1.125 -1.32422,1.13281 -1.30859,1.14844 -1.30078,1.16016 -1.28125,1.17187 -1.27344,1.1836 -1.25781,1.1914 -1.24609,1.20703 -1.23047,1.21485 -1.21485,1.22656 -1.20703,1.23828 -1.1875,1.25 -1.17578,1.25781 -1.16406,1.26953 -1.14453,1.28125 -1.13672,1.28907 -1.11719,1.30078 -1.10547,1.3125 -1.08593,1.32031 -1.07813,1.32813 -1.05859,1.33984 -1.04297,1.34766 -1.03125,1.35937 -1.01563,1.36719 -0.99609,1.375 -0.98438,1.38672 -0.96875,1.39453 -0.95312,1.40234 -0.9375,1.41016 -0.92188,1.42187 -0.90234,1.42578 -0.89062,1.4375 -0.875,1.44141 -0.85547,1.45313 -0.83985,1.45703 -0.82422,1.46484 -0.80859,1.47656 -0.79297,1.48047 -0.773436,1.48828 -0.757813,1.49219 -0.742187,1.50391 L 97.707031,180.625 97,182.13672 l -0.691406,1.52344 -0.671875,1.52734 -0.660157,1.53125 -0.636718,1.53906 -0.625,1.54297 -0.605469,1.55078 -0.585937,1.55469 -0.570313,1.55859 -0.554687,1.56641 -0.535157,1.57031 -0.519531,1.57422 -0.5,1.57813 -0.480469,1.58593 -0.464843,1.58594 -0.449219,1.59375 -0.429688,1.59766 -0.410156,1.59765 -0.394531,1.60547 -0.375,1.60547 -0.359375,1.60938 -0.339844,1.61328 -0.320313,1.61718 -0.304687,1.6211 -0.285156,1.62109 -0.269531,1.6211 -0.25,1.6289 -0.230469,1.62891 -0.214844,1.6289 -0.195313,1.63282 -0.175781,1.63672 -0.15625,1.63281 -0.140625,1.63672 -0.125,1.64062 -0.101562,1.63672 -0.08594,1.64063 -0.06641,1.64062 -0.05078,1.64063 -0.02734,1.64453 -0.01172,1.64062 0.0039,1.64063 0.02344,1.64062 0.04297,1.64453 0.0625,1.64063 0.07813,1.64062 0.101562,1.63672 0.113282,1.64063 0.136718,1.63672 0.152344,1.63671 0.171875,1.63282 0.1875,1.63281 0.207031,1.63281 0.226563,1.62891 0.242187,1.6289 0.261719,1.625 0.28125,1.6211 0.296875,1.62109 0.316406,1.61719 0.335938,1.61328 0.351562,1.60938 0.371094,1.60937 0.386719,1.60547 0.40625,1.60156 0.425781,1.59766 0.441406,1.59375 0.457032,1.58594 0.476562,1.58593 0.496094,1.58203 0.511718,1.57422 0.53125,1.57422 0.546876,1.56641 0.566406,1.5625 0.582031,1.55469 0.597656,1.55078 0.617188,1.54687 0.636719,1.53906 0.652343,1.53516 0.667969,1.53125 0.683594,1.51953 0.703125,1.51953 0.71875,1.50782 0.738281,1.5039 0.753906,1.4961 0.769534,1.49218 0.78515,1.48047 0.80079,1.47656 0.82031,1.46875 0.83594,1.46094 0.85156,1.45313 0.86719,1.44922 0.88671,1.4375 0.89844,1.42968 0.91797,1.42188 0.92969,1.41406 0.94922,1.40625 0.96093,1.39453 0.98047,1.39063 0.99219,1.3789 1.01172,1.36719 1.02344,1.36328 1.03906,1.35156 1.05859,1.34375 1.06641,1.33204 1.08594,1.32421 1.10156,1.3125 1.11328,1.30469 1.12891,1.29297 1.14062,1.28125 1.16016,1.27344 1.17187,1.26172 1.1836,1.2539 1.19921,1.24219 1.21485,1.23047 1.22656,1.21875 1.23828,1.21094 1.25391,1.19531 1.26953,1.1875 1.27734,1.17187 1.29297,1.16407 1.3086,1.15234 1.32031,1.14063 1.32812,1.1289 1.34766,1.11328 1.35547,1.10547 1.36719,1.08985 1.38281,1.08203 1.39062,1.0664 1.40625,1.05469 1.41797,1.03906 1.42578,1.03125 1.44141,1.01563 1.44922,1.0039 1.46094,0.98829 1.47265,0.97656 1.48438,0.96484 1.49609,0.95313 1.50391,0.93359 1.51562,0.92578 1.52735,0.91016 1.53515,0.89453 1.54297,0.88281 1.55859,0.86719 1.5625,0.85547 1.57422,0.83984 1.58594,0.82813 1.58984,0.8125 1.60157,0.79687 1.61328,0.78125 1.61719,0.76953 1.6289,0.75391 1.63672,0.74219 1.64453,0.72265 1.65235,0.71094 1.66015,0.69531 1.66797,0.67969 1.67578,0.66797 1.6836,0.64844 1.6875,0.63672 1.69921,0.62109 1.70313,0.60547 1.71094,0.58984 1.71484,0.57422 1.72266,0.55859 1.73047,0.54297 1.73437,0.52735 1.74219,0.51172 1.74609,0.49609 1.75391,0.48437 1.75781,0.46485 1.76172,0.44922 1.76562,0.43359 1.77344,0.41797 1.77735,0.40234 1.78125,0.38672 1.78515,0.36719 1.78906,0.35547 1.79297,0.33984 1.79688,0.32031 1.80078,0.30469 1.80469,0.28906 1.80859,0.27735 1.80859,0.2539 1.8125,0.24219 1.81641,0.22656 1.81641,0.20704 1.82031,0.1914 1.82422,0.17578 1.82422,0.16016 1.82422,0.14453 1.82812,0.125 1.82813,0.11328 1.83203,0.0937 1.82812,0.0781 1.83203,0.0586 1.83203,0.0469 1.83204,0.0273 1.83203,0.0117 1.83203,-0.004 1.83594,-0.0195 1.83203,-0.0391 1.83203,-0.0508 1.82812,-0.0703 1.83203,-0.0859 1.82813,-0.10547 1.82812,-0.11719 1.82813,-0.13672 1.82422,-0.15234 1.82422,-0.16797 1.82031,-0.18359 1.81641,-0.19922 1.8164,-0.21875 1.81641,-0.23438 1.8125,-0.24609 1.80859,-0.26953 1.80469,-0.28125 1.80078,-0.29688 1.80078,-0.3164 1.79297,-0.32813 1.79297,-0.34766 1.78516,-0.36328 1.78515,-0.375 1.77735,-0.39453 1.77734,-0.41015 1.76953,-0.42969 1.76563,-0.44141 1.75781,-0.45703 1.7539,-0.47266 1.75,-0.48828 1.7461,-0.50781 1.73828,-0.51953 1.73047,-0.53516 1.72656,-0.55078 1.71875,-0.57031 1.71484,-0.58203 1.70704,-0.59766 1.69921,-0.61328 1.69532,-0.625 1.68359,-0.64453 1.67969,-0.66016 1.67187,-0.67187 1.66407,-0.6875 1.65625,-0.70313 1.64843,-0.71875 1.64063,-0.73437 1.63281,-0.7461 1.62109,-0.76171 1.61719,-0.77735 1.60547,-0.78906 1.59766,-0.80469 1.58593,-0.82031 1.57813,-0.83594 1.57031,-0.84765 1.5586,-0.85938 1.55078,-0.875 1.54297,-0.89062 1.52734,-0.90235 1.52344,-0.91797 1.50781,-0.92968 1.5,-0.94532 1.48828,-0.95703 1.48047,-0.97265 1.46484,-0.98438 1.45703,-0.99609 1.44532,-1.00782 1.43359,-1.02343 1.42188,-1.03516 1.41015,-1.05078 1.39844,-1.05859 1.38672,-1.07422 1.375,-1.08594 1.36328,-1.09766 1.34766,-1.10937 1.33984,-1.125 1.32422,-1.13281 1.3125,-1.14454 1.30078,-1.16015 1.28516,-1.16797 1.27343,-1.17969 1.26172,-1.19531 1.2461,-1.20313 1.23437,-1.21484 1.21875,-1.22266 1.20313,-1.23828 1.19531,-1.24609 1.17578,-1.25781 1.16406,-1.26953 1.15235,-1.27735 1.13281,-1.28906 1.12109,-1.29688 1.10938,-1.30859 1.08984,-1.32031 1.07813,-1.32813 1.0625,-1.33984 1.04687,-1.34375 1.03125,-1.35938 1.01563,-1.36328 1.0039,-1.375 0.98438,-1.38672 0.97265,-1.39062 0.95313,-1.40234 0.9414,-1.41016 0.92188,-1.41797 0.90625,-1.42578 0.89453,-1.43359 0.875,-1.44141 0.85938,-1.45313 0.84375,-1.45703 0.82812,-1.46484 0.80859,-1.47266 0.79297,-1.48047 0.78125,-1.48437 0.75782,-1.49609 0.74609,-1.5 0.72656,-1.50391 0.71094,-1.51563 0.69531,-1.51953 0.67578,-1.52343 0.66016,-1.53516 0.64062,-1.53516 0.625,-1.54297 0.60938,-1.55078 0.58984,-1.55468 0.57422,-1.5586 0.55469,-1.5625 0.53906,-1.57031 0.51953,-1.57422 0.50391,-1.57812 0.48828,-1.58594 0.46484,-1.58594 0.45313,-1.58984 0.42969,-1.59766 0.41797,-1.59766 0.39453,-1.60546 0.3789,-1.60547 0.35938,-1.60938 0.34375,-1.61328 0.32422,-1.61328 0.30859,-1.62109 0.28906,-1.6211 0.26953,-1.625 0.25391,-1.625 0.23438,-1.6289 0.21484,-1.62891 0.19922,-1.63281 0.17969,-1.63282 0.16015,-1.63671 0.14453,-1.63672 0.125,-1.63672 0.10547,-1.64063 0.0859,-1.64062 0.0703,-1.64063 0.0547,-1.64062 0.0312,-1.64063 0.0156,-1.64062"
         id="path6" />
      <path
         style="fill:#ffffff;fill-opacity:0;stroke:#ffff00;stroke-width:7.5;stroke-linecap:round;stroke-linejoin:round;stroke-miterlimit:10;stroke-opacity:1"
         d="m 406.03516,327.67187 -0.0195,-0.54687 -0.0625,-0.54688 -0.10546,-0.54296 -0.14454,-0.54688 -0.1875,-0.53906 -0.23046,-0.53906 -0.26954,-0.53516 -0.30859,-0.53516 -0.35156,-0.52734 -0.38672,-0.52344 -0.42969,-0.51562 -0.46484,-0.51172 -0.50391,-0.50781 -0.54297,-0.5 -0.57422,-0.49219 -0.61328,-0.48438 -0.64453,-0.47656 -0.67969,-0.46875 -0.71484,-0.46094 -0.74609,-0.44922 -0.77344,-0.4414 -0.80469,-0.4336 -0.83594,-0.42187 -0.85937,-0.41406 -0.89063,-0.39844 -0.91406,-0.39453 -0.9375,-0.37891 -0.96094,-0.37109 -0.98828,-0.35547 -1.0039,-0.34766 -1.02735,-0.33593 -1.04687,-0.32422 -1.0625,-0.31641 -1.08203,-0.30078 -1.09766,-0.28906 -1.11328,-0.27735 -1.125,-0.26562 -1.14063,-0.25391 -1.14843,-0.24219 -1.16407,-0.23046 -1.17187,-0.21875 -1.18359,-0.20704 -1.19141,-0.19531 -1.19531,-0.1875 -1.20313,-0.17187 -1.21094,-0.16016 -1.21484,-0.15234 -1.21875,-0.14063 -1.22266,-0.1289 -1.22656,-0.11719 -1.22656,-0.10547 -1.22656,-0.0977 -1.23047,-0.0859 -1.22656,-0.0742 -1.23047,-0.0664 -1.22657,-0.0547 -1.22656,-0.0469 -1.22265,-0.0391 -1.21875,-0.0274 -1.21875,-0.0156 -1.21094,-0.0117 h -1.21094 l -1.20703,0.008 -1.19922,0.0195 -1.19531,0.0234 -1.1875,0.0312 -1.1836,0.043 -1.17968,0.0469 -1.17188,0.0586 -1.16406,0.0625 -1.15625,0.0703 -1.15234,0.0781 -1.14454,0.082 -1.13281,0.0937 -1.1289,0.0937 -1.1211,0.10546 -1.11328,0.10938 -1.10547,0.11719 -1.09765,0.12109 -1.08985,0.125 -1.08203,0.13281 -1.07422,0.13672 -1.0625,0.14453 -1.05859,0.14844 -1.04688,0.15234 -1.03906,0.15625 -1.03125,0.16407 -1.02344,0.16406 -1.01562,0.17187 -1.00781,0.17579 -0.9961,0.17578 -0.99219,0.18359 -0.98046,0.1875 -0.97657,0.1875 -0.96484,0.19531 -0.95703,0.19532 -0.94922,0.20312 -0.94531,0.20313 -0.9336,0.20703 -0.92578,0.20703 -0.91797,0.21094 -0.91406,0.21875 -0.90234,0.21484 -0.89844,0.22266 -0.89063,0.22265 -0.88281,0.22266 -0.875,0.23047 -0.87109,0.22656 -0.86328,0.23437 -0.85547,0.23438 -0.84766,0.23437 -0.84375,0.23829 -0.83594,0.24218 -0.83203,0.23828 -0.82422,0.2461 -0.82031,0.24219 -0.8125,0.25 -0.80859,0.24609 -0.80078,0.25 -0.79688,0.25 -0.79297,0.25391 -0.78515,0.2539 -0.78125,0.25391 -0.77735,0.25781 -0.77343,0.25391 -0.76563,0.26172 -0.76562,0.25781 -1.51563,0.52344 -0.75,0.26171 -0.74609,0.26172 -0.7461,0.26563 -0.73828,0.26172 -0.73828,0.26562 -0.73437,0.26953 -0.73047,0.26563 -0.72657,0.26562 -0.72656,0.26953 -0.72265,0.26954 -1.4375,0.53906 -0.71485,0.26953 -0.71094,0.26953 -0.71484,0.27344 -0.70703,0.26953 -0.70703,0.27344 -0.70703,0.26953 -2.8125,1.09375 -3.4961,1.36719 -0.69531,0.27343 -4.19531,1.64063 -0.70313,0.27344 -0.69922,0.27343 -0.70312,0.26953 -0.70703,0.27344 -0.70313,0.27344 -0.70703,0.26953 -0.71094,0.27344 -0.71093,0.26953 -0.71094,0.27344 -0.71484,0.26953 -1.4375,0.53906 -0.72266,0.26953 -0.72266,0.26563 -0.72656,0.26953 -0.73047,0.26562 -0.73437,0.26563 -1.47657,0.53125 -0.74218,0.26562 -1.5,0.52344 -0.75391,0.26172 -0.75781,0.26172 -0.76563,0.25781 -0.76562,0.26172 -0.77344,0.25781 -0.77344,0.25391 -0.78125,0.2539 -0.78515,0.25391 -0.79297,0.25391 -0.79688,0.25 -0.80078,0.25 -0.80469,0.25 -0.8125,0.24609 -0.82031,0.24609 -0.82422,0.24219 -0.82812,0.24219 -0.83594,0.24219 -0.84375,0.23828 -0.84766,0.23437 -0.85546,0.23438 -0.85938,0.23437 -0.87109,0.23047 -0.8711,0.22656 -0.88281,0.22657 -0.89062,0.22265 -0.89454,0.21875 -0.90234,0.21875 -0.91406,0.21485 -0.91797,0.21484 -0.92578,0.21094 -0.92969,0.20703 -0.94141,0.20312 -0.94921,0.19922 -0.95704,0.19922 -0.96484,0.19141 -0.97266,0.1914 -0.98046,0.1875 -0.98829,0.1836 -1,0.17969 -1.0039,0.17578 -1.01172,0.17187 -1.02344,0.16406 -1.03125,0.16407 -1.03906,0.15625 -1.04688,0.15625 -1.05468,0.14843 -1.0625,0.14063 -1.07032,0.14062 -1.08203,0.13282 -1.08593,0.1289 -1.09766,0.1211 -1.10547,0.11718 -1.10937,0.10938 -1.1211,0.10547 -1.1289,0.0976 -1.13282,0.0937 -1.14453,0.0859 -1.14844,0.0781 -1.15625,0.0703 -1.16406,0.0664 -1.17187,0.0547 -1.17578,0.0508 -1.1836,0.043 -1.1875,0.0352 -1.19531,0.0234 -1.19922,0.0195 -1.20312,0.008 h -1.20704 l -1.21484,-0.008 -1.21484,-0.0156 -1.22266,-0.0234 -1.22266,-0.0352 -1.22265,-0.0469 -1.22656,-0.0547 -1.23047,-0.0625 -1.22657,-0.0742 -1.23046,-0.0859 -1.22657,-0.0937 -1.23047,-0.10547 -1.22265,-0.11719 -1.22266,-0.125 -1.21875,-0.14062 -1.21875,-0.14844 -1.21094,-0.16015 -1.20312,-0.16797 -1.19922,-0.1836 -1.19141,-0.19531 -1.18359,-0.20703 -1.17578,-0.21484 -1.16406,-0.23047 -1.15235,-0.23828 -1.14062,-0.25391 -1.12891,-0.26563 -1.11328,-0.27343 -1.10156,-0.28907 -1.08203,-0.29687 -1.06641,-0.3125 -1.05078,-0.32422 -1.03125,-0.33203 -1.00781,-0.34766 -0.98828,-0.35547 -0.96485,-0.36718 -0.94531,-0.37891 -0.91797,-0.39062 -0.89062,-0.39844 -0.86719,-0.41016 -0.83985,-0.42187 -0.80859,-0.42969 -0.78125,-0.44141 -0.75,-0.44922 -0.71484,-0.46093 -0.6875,-0.46485 -0.65235,-0.47656 -0.61718,-0.48437 -0.58204,-0.49219 -0.54687,-0.4961 -0.50781,-0.5039 -0.47266,-0.51172 -0.43359,-0.51953 -0.39453,-0.51953 -0.35938,-0.52735 -0.3125,-0.53125 -0.27734,-0.53515 -0.23438,-0.53907 -0.19531,-0.54296 -0.15234,-0.54297 -0.11328,-0.54297 -0.0664,-0.54688 -0.0273,-0.54687 0.0117,-0.54688 0.0586,-0.54687 0.0977,-0.54688 0.13672,-0.54297 0.1836,-0.54296 0.22265,-0.53907 0.26172,-0.53906 0.30469,-0.53125 0.33984,-0.52734 0.38281,-0.52344 0.42188,-0.51953 0.46094,-0.51563 0.5,-0.5039 0.53515,-0.5 0.57032,-0.4961 0.60546,-0.48437 0.64063,-0.47656 0.67578,-0.47266 0.70703,-0.46094 0.73828,-0.45312 0.77344,-0.44141 0.80078,-0.43359 0.82813,-0.42578 0.85547,-0.41407 0.88671,-0.40234 0.91016,-0.39453 0.93359,-0.38281 0.96094,-0.3711 0.98047,-0.35937 1.00391,-0.34766 1.02343,-0.33984 1.03907,-0.32422 1.0625,-0.31641 1.07812,-0.30469 1.09766,-0.28906 1.10937,-0.28125 1.125,-0.26562 1.13672,-0.25782 1.14844,-0.24218 1.16016,-0.23438 1.17187,-0.21875 1.17969,-0.21094 1.1914,-0.19921 1.19532,-0.1836 1.20312,-0.17578 1.20703,-0.16406 1.21485,-0.15235 1.21875,-0.14062 1.22265,-0.12891 1.22266,-0.12109 1.22656,-0.10938 1.23047,-0.0976 1.22656,-0.0859 1.23047,-0.0781 1.22656,-0.0703 1.23047,-0.0547 1.22266,-0.0508 1.22656,-0.0351 1.21875,-0.0312 1.21875,-0.0195 1.21485,-0.008 1.21093,-0.004 1.20313,0.008 1.20312,0.0156 1.19532,0.0234 1.1914,0.0312 1.1836,0.0391 1.17968,0.0469 1.17188,0.0547 1.16406,0.0625 1.16016,0.0703 1.15234,0.0742 1.14453,0.0859 1.13672,0.0898 1.12891,0.0937 1.125,0.10547 1.11328,0.10547 1.10547,0.11719 1.10156,0.12109 1.08984,0.125 1.08203,0.13281 1.07422,0.13672 1.06641,0.14063 1.05859,0.14843 1.04688,0.15235 1.04297,0.15625 1.03125,0.16015 1.02343,0.16407 1.01954,0.17187 1.00781,0.17188 1,0.17968 0.98828,0.1836 0.98437,0.18359 0.97657,0.19141 0.96484,0.1914 0.96094,0.19532 0.94922,0.19921 0.94531,0.20313 0.9375,0.20703 0.92578,0.21094 0.92188,0.21094 0.91406,0.21484 0.90234,0.21484 0.89844,0.22266 0.89062,0.22266 0.88672,0.22265 0.875,0.22656 0.8711,0.23047 0.86328,0.23047 0.85937,0.23438 0.84766,0.23828 0.84375,0.23437 0.83984,0.24219 0.83203,0.24219 0.82422,0.24219 0.82032,0.24218 0.8125,0.2461 0.80859,0.25 0.80469,0.25 0.79687,0.25 0.79297,0.2539 0.78906,0.25 0.78125,0.25782 0.77735,0.2539 0.77343,0.25781 0.76954,0.25782 0.76562,0.25781 1.51563,0.52344 1.5,0.52343 1.48437,0.53125 0.73828,0.26563 0.73438,0.26562 0.73047,0.26563 0.73046,0.26953 0.72266,0.26563 1.44531,0.53906 0.71485,0.26953 0.71875,0.26953 0.71093,0.26953 0.71094,0.27344 0.71094,0.26953 0.70703,0.27344 0.70703,0.26953 2.8125,1.09375 0.69922,0.26953 2.09766,0.82031 0.69922,0.27735 0.69921,0.27343 0.69532,0.27344 3.49609,1.36719 0.70313,0.27344 0.69921,0.26953 0.70313,0.27344 0.70703,0.27343 0.70313,0.27344 0.70703,0.26953 0.71093,0.27344 0.70704,0.26953 0.71484,0.27344 1.42969,0.53906 0.71875,0.26953 0.72265,0.26953 0.72266,0.26563 0.72656,0.26953 0.73047,0.26562 0.73438,0.26563 0.73437,0.26953 0.74219,0.26172 0.74219,0.26562 0.74609,0.26172 0.75,0.26563 0.75391,0.26172 0.75781,0.25781 0.76172,0.26172 0.76562,0.25781 1.54688,0.51563 0.78125,0.2539 0.78515,0.25391 0.78907,0.2539 0.79687,0.25 0.80078,0.25 0.80469,0.25 0.8125,0.2461 0.81641,0.24609 0.82421,0.24219 0.82813,0.24219 0.83594,0.24218 0.83984,0.23829 0.84766,0.23828 0.85547,0.23437 0.85937,0.23047 0.86719,0.23047 0.87109,0.23047 0.88281,0.22656 0.88672,0.22266 0.89453,0.21875 0.90235,0.21875 0.91015,0.21875 0.91797,0.21093 0.92188,0.21094 0.93359,0.20703 0.94141,0.20703 0.94531,0.19922 0.95703,0.19922 0.96094,0.19531 0.97266,0.1875 0.98046,0.1875 0.98829,0.1875 0.99609,0.17969 1.00391,0.17578 1.01171,0.17188 1.01954,0.16797 1.02734,0.16015 1.03906,0.16016 1.04688,0.15625 1.05078,0.14844 1.0625,0.14453 1.07031,0.13672 1.07813,0.13672 1.08984,0.1289 1.09375,0.1211 1.10156,0.11718 1.11328,0.11328 1.11719,0.10547 1.125,0.0977 1.13672,0.0937 1.14062,0.0859 1.14844,0.082 1.15625,0.0703 1.16016,0.0664 1.17187,0.0586 1.17578,0.0508 1.17969,0.043 1.1875,0.0352 1.19531,0.0273 1.19532,0.0195 1.20703,0.0117 1.20703,0.004 1.21094,-0.008 1.21875,-0.0156 1.21875,-0.0234 1.22265,-0.0351 1.22266,-0.043 1.22656,-0.0508 1.22656,-0.0664 1.23047,-0.0703 1.23047,-0.082 1.22656,-0.0937 1.22657,-0.10547 1.22656,-0.11328 1.22266,-0.125 1.22265,-0.13672 1.21485,-0.14453 1.21093,-0.16016 1.20703,-0.16797 1.19922,-0.18359 1.19141,-0.19141 1.1875,-0.20312 1.17578,-0.21485 1.16406,-0.22656 1.15625,-0.23828 1.14063,-0.25 1.13281,-0.26563 1.11719,-0.27343 1.10156,-0.28516 1.08594,-0.29688 1.07031,-0.30859 1.05078,-0.32031 1.03516,-0.33203 1.01172,-0.34375 0.99218,-0.35547 0.96875,-0.36719 0.94532,-0.375 0.92187,-0.39062 0.89844,-0.39844 0.87109,-0.41016 0.84375,-0.41797 0.8125,-0.42968 0.78516,-0.4375 0.75391,-0.44922 0.72265,-0.45703 0.69141,-0.46485 0.65625,-0.47656 0.625,-0.48047 0.58594,-0.48828 0.55468,-0.5 0.51563,-0.50391 0.47656,-0.50781 0.44141,-0.51562 0.40234,-0.52344 0.35938,-0.52735 0.32421,-0.52734 0.28125,-0.53516 0.24219,-0.53906 0.20313,-0.54297 0.15625,-0.54297 0.11718,-0.54296 0.0781,-0.54688 0.0352,-0.54687"
         id="path8" />
      <path
         style="fill:#ffffff;fill-opacity:0;stroke:#ffff00;stroke-width:7.5;stroke-linecap:round;stroke-linejoin:round;stroke-miterlimit:10;stroke-opacity:1"
         d="m 266.39844,151.76562 0.004,1.5625 0.0156,1.5625 0.0195,1.5625 0.0312,1.5625 0.0391,1.5625 0.0508,1.5625 0.0547,1.5586 0.0664,1.55859 0.0742,1.5586 0.082,1.55859 0.0898,1.55469 0.10156,1.55078 0.10938,1.55469 0.11719,1.54687 0.125,1.54688 0.13671,1.54687 0.14063,1.54297 0.15234,1.53906 0.16016,1.53516 0.17187,1.53515 0.17579,1.53125 0.1875,1.52735 0.19531,1.52344 0.20312,1.52343 0.21094,1.51563 0.21875,1.51172 0.23047,1.51172 0.23437,1.5039 0.2461,1.5 0.2539,1.4961 0.26172,1.49218 0.27344,1.48438 0.27734,1.48437 0.28516,1.47657 0.29688,1.46875 0.30468,1.46875 0.3086,1.46093 0.32031,1.45313 0.32812,1.44922 0.33594,1.44531 0.34375,1.4375 0.35156,1.42969 0.35938,1.42187 0.36719,1.42188 0.3789,1.41015 0.38282,1.40235 0.39062,1.39843 0.39844,1.39063 0.40625,1.38281 0.41406,1.37891 0.42188,1.36719 0.43359,1.35937 0.4375,1.35547 0.44141,1.34375 0.45312,1.33594 0.46094,1.32812 0.46875,1.32422 0.47265,1.30859 0.48047,1.30469 0.49219,1.29688 0.49609,1.28515 0.50391,1.27735 0.50781,1.26562 0.51953,1.26172 0.52344,1.25 0.53125,1.23828 0.53906,1.23047 0.54688,1.22266 0.55078,1.21093 0.55859,1.19922 0.56641,1.19141 0.57031,1.17969 0.58203,1.17187 0.58204,1.16016 0.59375,1.14844 0.59765,1.13671 0.60547,1.12891 0.60938,1.11719 0.61718,1.10547 0.6211,1.09765 0.63281,1.08203 0.63281,1.07422 0.64063,1.0586 0.64843,1.05078 0.65235,1.03906 0.66015,1.02344 0.66407,1.01562 0.66797,1.00391 0.67578,0.98828 0.67968,0.97656 0.6875,0.96875 0.69141,0.95313 0.69531,0.9414 0.70313,0.92579 0.70703,0.91796 0.71484,0.90235 0.71485,0.89062 0.72265,0.87891 0.72657,0.86328 0.73437,0.85156 0.73438,0.83594 0.74218,0.82813 0.7461,0.80859 0.75,0.80078 0.75781,0.78516 0.75781,0.76953 0.76172,0.75781 0.76953,0.74609 0.76953,0.72657 0.77735,0.71875 0.78125,0.70312 0.78125,0.6875 0.78906,0.67188 0.78906,0.66015 0.79688,0.64844 0.79687,0.62891 0.80078,0.61718 0.8086,0.60547 0.80859,0.58594 0.80859,0.57422 0.81641,0.55859 0.82031,0.54688 0.82032,0.53125 0.82421,0.51172 0.82422,0.5039 0.83203,0.48438 0.83204,0.46875 0.83203,0.45703 0.83984,0.44141 0.83984,0.42578 0.83985,0.41015 0.84765,0.39453 0.84375,0.38282 0.84766,0.36328 0.85156,0.35156 0.85157,0.33594 0.85546,0.3164 0.85547,0.30469 0.85938,0.28906 0.85937,0.27344 0.85938,0.25781 0.86328,0.24219 0.86328,0.23047 0.86328,0.21094 0.86719,0.19531 0.86719,0.17969 0.86718,0.16406 0.86719,0.15234 0.8711,0.13282 0.87109,0.11718 0.87109,0.10547 0.8711,0.0859 0.87109,0.0703 0.87109,0.0586 0.875,0.0391 0.8711,0.0234 0.87109,0.0117"
         id="path10" />
      <path
         style="fill:#ffffff;fill-opacity:0;stroke:#ffff00;stroke-width:7.5;stroke-linecap:round;stroke-linejoin:round;stroke-miterlimit:10;stroke-opacity:1"
         d="m 179.12891,308.12891 0.87109,-0.008 0.87109,-0.0234 0.875,-0.0391 0.8711,-0.0547 0.87109,-0.0703 0.87109,-0.0859 0.8711,-0.10157 0.87109,-0.11718 0.8711,-0.13282 0.86718,-0.14843 0.86719,-0.16407 0.86719,-0.17968 0.86719,-0.19532 0.86328,-0.21093 0.86328,-0.22657 0.86328,-0.24218 0.85937,-0.25391 0.85938,-0.27344 0.85937,-0.28906 0.85547,-0.30078 0.85547,-0.32031 0.85156,-0.33204 0.85157,-0.34765 0.84765,-0.36719 0.84766,-0.37891 0.84375,-0.39453 0.84375,-0.41015 0.83984,-0.42188 0.83594,-0.4414 0.83594,-0.45313 0.83203,-0.46875 0.83203,-0.48437 0.82422,-0.5 0.82422,-0.51563 0.82422,-0.52734 0.8164,-0.54297 0.81641,-0.5586 0.8125,-0.57421 0.80859,-0.58594 0.80469,-0.60156 0.80078,-0.61719 0.80078,-0.62891 0.79297,-0.64453 0.79297,-0.66016 0.78516,-0.67187 0.78515,-0.6875 0.78125,-0.70313 0.77735,-0.71484 0.76953,-0.72656 0.76953,-0.7461 0.76172,-0.7539 0.76172,-0.76953 0.7539,-0.78516 0.75,-0.79687 0.7461,-0.8125 0.74218,-0.82422 0.73829,-0.83594 0.73046,-0.85156 0.73047,-0.86328 0.72266,-0.875 0.71484,-0.89063 0.71485,-0.90234 0.70703,-0.91407 0.70312,-0.92578 0.69922,-0.9414 0.69141,-0.95313 0.6875,-0.96484 0.67969,-0.97656 0.67578,-0.98829 0.67187,-1.0039 0.66406,-1.01172 0.65625,-1.02344 0.65625,-1.03906 0.64454,-1.04688 0.64453,-1.0625 0.63281,-1.07031 0.62891,-1.08203 0.625,-1.09375 0.61718,-1.10547 0.61328,-1.11719 0.60157,-1.125 0.60156,-1.14062 0.58984,-1.14844 0.58594,-1.16015 0.58203,-1.16797 0.57031,-1.17969 0.56641,-1.19141 0.55859,-1.19922 0.55469,-1.21093 0.54297,-1.21875 0.53906,-1.23047 0.53516,-1.23828 0.52344,-1.25 0.51953,-1.25782 0.51172,-1.26562 0.5039,-1.27734 0.4961,-1.28516 0.48828,-1.29297 0.48437,-1.30469 0.47657,-1.3125 0.46484,-1.32031 0.46094,-1.32812 0.45312,-1.33594 0.44531,-1.34375 0.4375,-1.35156 0.4336,-1.35938 0.42187,-1.37109 0.41407,-1.375 0.40625,-1.38282 0.40234,-1.38671 0.39062,-1.39844 0.38282,-1.40235 0.3789,-1.41406 0.36719,-1.41797 0.35938,-1.42187 0.35546,-1.42969 0.34375,-1.4375 0.33594,-1.44141 0.32813,-1.44921 0.32031,-1.45704 0.3125,-1.45703 0.30469,-1.46875 0.29297,-1.46875 0.28906,-1.47656 0.28125,-1.48047 0.26953,-1.48828 0.26172,-1.49219 0.2539,-1.49609 0.2461,-1.5 0.23828,-1.50391 0.23047,-1.50781 0.21875,-1.51172 0.21484,-1.51562 0.20313,-1.52344 0.19531,-1.52344 0.1875,-1.52734 0.17578,-1.53125 0.17188,-1.53125 0.16015,-1.53906 0.15235,-1.53907 0.14453,-1.54297 0.13672,-1.54296 0.125,-1.54688 0.12109,-1.55078 0.10937,-1.55078 0.0977,-1.55078 0.0937,-1.5586 0.082,-1.55468 0.0742,-1.5586 0.0664,-1.55859 0.0586,-1.5586 0.0508,-1.5625 0.0391,-1.5625 0.0312,-1.5625 0.0234,-1.5625 0.0117,-1.5625 0.004,-1.5664"
         id="path12" />
      <path
         style="fill:#ffffff;fill-opacity:0;stroke:#ffff00;stroke-width:7.5;stroke-linecap:round;stroke-linejoin:round;stroke-miterlimit:10;stroke-opacity:1"
         d="m 278.61719,121.27344 -0.1211,-0.3125 -0.375,-0.9375 -0.64453,-1.5625 -0.13281,-0.3086 -0.26563,-0.625 -0.13281,-0.30859 -0.13672,-0.30859 -0.13281,-0.3125 -0.13672,-0.3086 -0.13281,-0.30859 -0.13672,-0.30469 -0.27344,-0.61719 -0.41015,-0.91406 -0.14063,-0.30469 -0.13672,-0.30468 -0.13672,-0.30078 -0.13671,-0.30469 -0.13672,-0.30078 -0.13672,-0.29688 -0.14063,-0.30078 -0.13672,-0.29687 -0.13671,-0.30079 -0.13282,-0.29296 -0.13672,-0.29688 -0.27343,-0.58594 -0.26563,-0.58593 -0.13672,-0.28907 -0.13281,-0.28906 -0.12891,-0.28516 -0.13281,-0.28906 -0.13281,-0.28515 -0.51563,-1.125 -0.125,-0.27735 -0.1289,-0.27734 -0.125,-0.27344 -0.1211,-0.27344 -0.125,-0.27343 -0.36328,-0.8086 -0.11718,-0.26562 -0.11719,-0.26172 -0.11719,-0.26563 -0.11719,-0.25781 -0.11328,-0.26172 -0.11328,-0.2539 -0.10937,-0.25782 -0.10938,-0.2539 -0.21875,-0.5 -0.10547,-0.25 -0.10156,-0.2461 -0.10547,-0.24218 -0.10156,-0.24219 -0.0977,-0.24219 -0.10156,-0.23828 -0.0977,-0.23438 -0.0937,-0.23437 -0.1875,-0.460939 -0.0898,-0.230469 -0.0898,-0.222656 -0.0899,-0.226562 -0.17187,-0.4375 -0.082,-0.21875 -0.082,-0.214844 -0.0781,-0.210938 -0.082,-0.210937 -0.0742,-0.207031 -0.22266,-0.609375 -0.0703,-0.195313 -0.0664,-0.195312 -0.0703,-0.195313 -0.0625,-0.191406 -0.0664,-0.1875 -0.0625,-0.183594 -0.0586,-0.183593 -0.11719,-0.359376 -0.0547,-0.175781 -0.10938,-0.34375 -0.0508,-0.167969 -0.0508,-0.164062 -0.0469,-0.164062 -0.0469,-0.15625 -0.043,-0.160157 -0.0859,-0.304687 -0.043,-0.148438 -0.0391,-0.144531 -0.0351,-0.144531 -0.0391,-0.140625 -0.0312,-0.136719 -0.0351,-0.136719 -0.0312,-0.132812 -0.0312,-0.128907 -0.0312,-0.125 -0.0274,-0.125 -0.0273,-0.117187 -0.0234,-0.121094 -0.0273,-0.113281 -0.0234,-0.113281 -0.0195,-0.105469 -0.0234,-0.109375 -0.0195,-0.101563 -0.0156,-0.101562 -0.0195,-0.09375 -0.0156,-0.09766 -0.0156,-0.08984 -0.0156,-0.08594 -0.0117,-0.08594 -0.0234,-0.164063 -0.0234,-0.148437 -0.008,-0.07031 -0.008,-0.06641 -0.0156,-0.125 -0.004,-0.05859 -0.008,-0.05469 -0.004,-0.05078 -0.008,-0.09375 -0.004,-0.04297 -0.004,-0.03906 -0.004,-0.03516 v -0.0625 l -0.004,-0.02734 v -0.0625 l -0.004,-0.01172 V 90 90.09766 l -0.004,0.02734 v 0.02734 l -0.004,0.03516 v 0.03516 l -0.008,0.07813 -0.008,0.09375 -0.004,0.05078 -0.008,0.05469 -0.004,0.05859 -0.008,0.05859 -0.0234,0.199218 -0.0117,0.07422 -0.008,0.07422 -0.0117,0.07813 -0.0156,0.08203 -0.0117,0.08594 -0.0156,0.08594 -0.0469,0.28125 -0.0391,0.203125 -0.0195,0.105469 -0.0469,0.21875 -0.0469,0.234375 -0.0274,0.117187 -0.0273,0.125 -0.0312,0.125 -0.0312,0.128907 -0.0625,0.265624 -0.0352,0.136719 -0.0351,0.140625 -0.0781,0.289063 -0.0391,0.148437 -0.0859,0.304688 -0.0469,0.15625 -0.043,0.160156 -0.0508,0.160156 -0.0469,0.164063 -0.0508,0.167969 -0.10937,0.34375 -0.0547,0.175781 -0.0586,0.175781 -0.0586,0.179688 -0.0586,0.183593 -0.125,0.375 -0.0664,0.1875 -0.0664,0.195313 -0.14062,0.390625 -0.0703,0.203125 -0.0742,0.199218 -0.0742,0.207032 -0.15625,0.414062 -0.0781,0.214844 -0.16406,0.429688 -0.17187,0.4375 -0.0859,0.226562 -0.0898,0.222656 -0.0899,0.226563 -0.1875,0.460938 -0.0976,0.23437 -0.29297,0.71485 -0.10157,0.24218 -0.10546,0.24219 -0.10157,0.24609 -0.10547,0.25 -0.21875,0.5 -0.21875,0.50782 -0.22656,0.51562 -0.11328,0.26172 -0.23437,0.52344 -0.1211,0.26562 -0.11719,0.26953 -0.24218,0.53907 -0.125,0.26953 -0.125,0.27344 -0.1211,0.27734 -0.1289,0.27734 -0.125,0.27735 -0.12891,0.27734 -0.25781,0.5625 -0.12891,0.28516 -0.13281,0.28515 -0.12891,0.28516 -0.13281,0.28516 -0.26562,0.57812 -0.13672,0.29297 -0.13282,0.29297 -0.27343,0.58594 -0.13282,0.29687 -0.13671,0.29297 -0.13672,0.29687 -0.13672,0.30079 -0.13672,0.29687 -0.27344,0.60156 -0.14062,0.30078 -0.13672,0.30469 -0.13672,0.30078 -0.41016,0.91407 -0.14062,0.30859 -0.13672,0.30469 -0.13281,0.30859 -0.41016,0.92578 -0.13281,0.3086 -0.13672,0.30859 -0.13281,0.3125 -0.13282,0.30859 -0.13281,0.3125 -0.1289,0.3125 -0.13282,0.3086 -0.51562,1.25 -0.5,1.25 -0.24219,0.625 -0.35156,0.9375 -0.33985,0.9375 -0.10937,0.3125 -0.10938,0.30859 -0.10937,0.3125 -0.10156,0.3125 -0.10547,0.30859 -0.10156,0.3086 -0.10157,0.3125 -0.0977,0.30859 -0.1875,0.61719 -0.0937,0.30469 -0.0898,0.30859 -0.17187,0.60937 -0.082,0.3086 -0.082,0.30078 -0.0781,0.30469 -0.0742,0.30468 -0.14844,0.60157 -0.13281,0.60156 -0.0664,0.29687 -0.17579,0.89063 -0.10156,0.58594 -0.0937,0.58593 -0.043,0.28907 -0.0391,0.28906 -0.0352,0.28516 -0.0352,0.28906 -0.0312,0.28515 -0.0273,0.28125 -0.0234,0.28516 -0.0234,0.28125 -0.0195,0.27734 -0.0156,0.27735 -0.0117,0.27734 -0.008,0.27735 -0.008,0.27343 -0.004,0.27344 v 0.26953 l 0.004,0.26953 0.008,0.26563 0.008,0.26953 0.0117,0.26172 0.0156,0.26562 0.0195,0.25782 0.0234,0.26171 0.0273,0.25782 0.0273,0.2539 0.0703,0.50782 0.0391,0.25 0.0859,0.49218 0.0508,0.2461 0.0508,0.24218 0.0586,0.24219 0.0586,0.23828 0.125,0.46875 0.0703,0.23438 0.0742,0.23047 0.0742,0.22656 0.0781,0.22656 0.082,0.22266 0.0859,0.22265 0.0898,0.21875 0.0937,0.21875 0.0937,0.21485 0.20313,0.42187 0.10547,0.20703 0.10937,0.20704 0.10938,0.20312 0.23437,0.39844 0.1211,0.19531 0.125,0.19531 0.1289,0.19141 0.12891,0.1875 0.13281,0.18359 0.13672,0.1836 0.14063,0.18359 0.14453,0.17969 0.14453,0.17578 0.14844,0.17187 0.15234,0.17188 0.15625,0.16797 0.15625,0.16406 0.16016,0.16406 0.16406,0.16016 0.16406,0.15625 0.16797,0.15625 0.17187,0.14844 0.17579,0.15234 0.17578,0.14453 0.17968,0.14453 0.17969,0.14063 0.1836,0.13672 0.1875,0.13672 0.1914,0.13281 0.19141,0.1289 0.1914,0.125 0.19532,0.125 0.19922,0.1211 0.19921,0.11719 0.20313,0.11718 0.20703,0.11328 0.20703,0.10938 0.20703,0.10547 0.42188,0.20312 0.21484,0.0977 0.21875,0.0937 0.21485,0.0937 0.22265,0.0898 0.21875,0.082 0.22266,0.0859 0.45312,0.15625 0.22657,0.0703 0.46093,0.14063 0.46094,0.125 0.23438,0.0586 0.23437,0.0547 0.23828,0.0508 0.23438,0.0508 0.23828,0.0469 0.23828,0.043 0.24219,0.0391 0.23828,0.0352 0.24219,0.0352 0.23828,0.0312 0.24218,0.0234 0.2461,0.0273 0.48437,0.0391 0.24219,0.0117 0.24609,0.0117 0.24219,0.0117 0.2461,0.004 0.24218,0.004 0.49219,-0.008 0.24219,-0.004 0.24609,-0.0117 0.24219,-0.0117 0.24219,-0.0195 0.24609,-0.0195 0.24219,-0.0195 0.48437,-0.0547 0.23828,-0.0352 0.24219,-0.0352 0.23828,-0.0352 0.47657,-0.0859 0.47656,-0.10156 0.23437,-0.0508 0.46875,-0.11719 0.23047,-0.0625 0.23047,-0.0664 0.23047,-0.0703 0.22656,-0.0703 0.45313,-0.15625 0.22265,-0.0781 0.22266,-0.0859 0.21875,-0.0859 0.21875,-0.0898 0.21875,-0.0937 0.42969,-0.19531 0.21093,-0.10156 0.21094,-0.10547 0.20703,-0.10937 0.20313,-0.10938 0.20703,-0.11328 0.19922,-0.11719 0.39844,-0.24219 0.19531,-0.125 0.1914,-0.1289 0.1875,-0.13281 0.19141,-0.13282 0.18359,-0.13672 0.1836,-0.14062 0.17969,-0.14063 0.17578,-0.14453 0.17578,-0.14843 0.17578,-0.15235 0.16797,-0.15234 0.16797,-0.15625 0.16406,-0.16016 0.16016,-0.16015 0.16015,-0.16407 0.15625,-0.16797 0.15235,-0.16796 0.15234,-0.17188 0.28906,-0.35156 0.14063,-0.17969 0.14062,-0.18359 0.13281,-0.1836 0.13282,-0.1875 0.25781,-0.38281 0.12109,-0.19531 0.1211,-0.19922 0.11718,-0.19922 0.11329,-0.19922 0.10937,-0.20703 0.21094,-0.41406 0.0976,-0.21094 0.0977,-0.21484 0.0937,-0.21485 0.0937,-0.21875 0.0859,-0.22265 0.16406,-0.44532 0.0781,-0.22656 0.0742,-0.23047 0.0703,-0.23047 0.13281,-0.46875 0.0586,-0.23828 0.0586,-0.24218 0.0547,-0.23829 0.0508,-0.24609 0.0469,-0.24609 0.043,-0.2461 0.0781,-0.5 0.0352,-0.2539 0.0273,-0.25391 0.0547,-0.51562 0.0195,-0.25782 0.0156,-0.26562 0.0156,-0.26172 0.0117,-0.26563 0.008,-0.26562 0.008,-0.53906 -0.008,-0.54688 -0.008,-0.27344 -0.0117,-0.27734 -0.0312,-0.55469 -0.0195,-0.28125 -0.0234,-0.28125 -0.0273,-0.28515 -0.0312,-0.28125 -0.0312,-0.28907 -0.0352,-0.28515 -0.0781,-0.57813 -0.043,-0.28906 -0.0469,-0.29297 -0.10157,-0.58594 -0.0547,-0.29687 -0.11719,-0.59375 -0.0625,-0.29688 -0.0664,-0.29687 -0.0664,-0.30078 -0.0703,-0.30078 -0.0742,-0.30078 -0.0742,-0.30469 -0.0781,-0.30078 -0.0781,-0.30469 -0.082,-0.30469 -0.0859,-0.30468 -0.0859,-0.3086 -0.0898,-0.30469 -0.0899,-0.30859 -0.1875,-0.61719 -0.19531,-0.61718 -0.20313,-0.61719 -0.21093,-0.625 -0.10938,-0.3086 -0.21875,-0.625 -0.22656,-0.625 -0.35156,-0.9375 -0.24219,-0.625"
         id="path14" />
    </g>
  </g>
</svg>
